<svg id="Group_14877" data-name="Group 14877" xmlns="http://www.w3.org/2000/svg" xmlns:xlink="http://www.w3.org/1999/xlink" width="703.83" height="1000.282" viewBox="0 0 703.83 1000.282">
  <defs>
    <clipPath id="clip-path">
      <rect id="Rectangle_1153" data-name="Rectangle 1153" width="703.83" height="1000.282" fill="none"/>
    </clipPath>
    <clipPath id="clip-path-2">
      <rect id="Rectangle_1152" data-name="Rectangle 1152" width="703.83" height="1000.284" fill="none"/>
    </clipPath>
    <clipPath id="clip-path-3">
      <rect id="Rectangle_1142" data-name="Rectangle 1142" width="605.382" height="173.405" fill="none"/>
    </clipPath>
    <clipPath id="clip-path-4">
      <rect id="Rectangle_1143" data-name="Rectangle 1143" width="36.007" height="92.391" fill="none"/>
    </clipPath>
    <clipPath id="clip-path-5">
      <rect id="Rectangle_1144" data-name="Rectangle 1144" width="12.019" height="100.891" fill="none"/>
    </clipPath>
    <clipPath id="clip-path-6">
      <rect id="Rectangle_1145" data-name="Rectangle 1145" width="45.807" height="107.932" fill="none"/>
    </clipPath>
    <clipPath id="clip-path-7">
      <rect id="Rectangle_1146" data-name="Rectangle 1146" width="26.203" height="75.261" fill="none"/>
    </clipPath>
    <clipPath id="clip-path-8">
      <rect id="Rectangle_1147" data-name="Rectangle 1147" width="472.387" height="106.473" fill="none"/>
    </clipPath>
    <clipPath id="clip-path-9">
      <rect id="Rectangle_1148" data-name="Rectangle 1148" width="39.156" height="181.863" fill="none"/>
    </clipPath>
    <clipPath id="clip-path-10">
      <rect id="Rectangle_1149" data-name="Rectangle 1149" width="48.786" height="23.385" fill="none"/>
    </clipPath>
    <clipPath id="clip-path-11">
      <rect id="Rectangle_1150" data-name="Rectangle 1150" width="36.225" height="4.687" fill="none"/>
    </clipPath>
    <clipPath id="clip-path-12">
      <rect id="Rectangle_1151" data-name="Rectangle 1151" width="21.771" height="168.749" fill="none"/>
    </clipPath>
  </defs>
  <g id="Group_14876" data-name="Group 14876" clip-path="url(#clip-path)">
    <g id="Group_14875" data-name="Group 14875" transform="translate(0 -0.002)">
      <g id="Group_14874" data-name="Group 14874" clip-path="url(#clip-path-2)">
        <path id="Path_27528" data-name="Path 27528" d="M681.992,1474.479a103.747,103.747,0,0,0-21.188-7.029c-3.223-.7-7.608.1-11.06-.617,9.2-3.107,22.323-1.833,27.628-9.986.19-.3.69-1.05.3-1.408a12.272,12.272,0,0,0-2.815-1.928,83,83,0,0,0,15.252-3.721c6.1-2.235,9.738-8.6,3.652-13.021-4.5-3.268-10.719-4.55-16-5.907-8.715-2.235-17.437-4.592-26.233-6.476-7.676-1.645-15.63-2.5-23.4-3.6a81.966,81.966,0,0,0-9.408-.248c5.988-2,11.842-4.432,17.653-6.9,5.314-2.256,11.039-5.1,14.253-10.066,8.3-12.838-31.253-21.671-37.305-22.864-26.79-5.283-54.692-6.445-81.92-6.766-6.31-.074-12.626.027-18.939.266,4.434-2.439,11.586-6.449,12.534-11.9,1.962-11.312-18.138-12.577-25.488-14.225-52.637-11.8-122.852-12.449-181.118-11.229-22.677.475-90.726,1.958-112.931,6.975-5.547,1.253-16.3,4.055-17.77,10.868-.465,2.161.416,4.186,2.157,6.062-7.708.543-15.388,1.58-23.048,2.51-22.123,2.682-43.826,7.02-64.212,16.286-9.267,4.212-24.971,14.066-15.353,25.329,5,5.848,16.284,8.535,23.165,10.8a96.333,96.333,0,0,0,14.208,3.949,32.763,32.763,0,0,1,8.352,2.066c-7.84,1.638-15.627,2.8-22.542,7.674-4.022,2.834-3.768,4.792-1.91,6.465-5.793.309-12.573-.744-17.415-.282a166.73,166.73,0,0,0-29.789,5.778,179.613,179.613,0,0,0-48.1,21.488c-2.958,1.905-19.458,12.349-10.648,16.923,4.727,2.454,10.018,2.068,15.2,2.478,7.28.576,17.55-.58,25.521,1.383a63.687,63.687,0,0,0-16.869,7.816c-2.617,1.7-9.431,5.859-7.251,9.878.9,1.667,6.108,1.583,7.666,1.8,3.334.462,14.01-1.492,4.748,1.968-4.137,1.546-9.413,3.333-10.894,7.894a.969.969,0,0,0,.131.852c5.2,3.7,16.547.617,22.835,1.013,5.987.377,11.832,1.667,17.822,1.871,4.148.14,10.008.419,14.562,1.956-10.463,4.827-23.892,9.627-27.849,20.6-2.252,6.237,45.505,10.176,49.077,10.636,23.242,2.979,48.345.5,71.493-2.408,12-1.507,23.949-3.414,35.945-4.974,3.1-.4,6.467-.535,9.826-.82a23.911,23.911,0,0,0-7.956,7.277c-.478.724-1.085,1.807-.1,2.372,7.493,4.308,19.773-3.482,28.917-5.552-6.558,4.9-17.861,11.446-5.152,15.142,21.139,6.151,90.588,4.63,112.326,4.073,23.973-.615,47.915-1.293,71.783-3.829,7.652-.813,50.691-.159,52.125-11.243.447-.023.9-.05,1.342-.068,11-.419,22.869.653,34.268,1.866-6.279,1.951-12.324,4.648-15.413,9.275-.38.57-1.351,2.284-.113,2.625,11.2,3.074,24.709.842,36.227.741,15.731-.138,31.484-1.111,47.146-2.556,24.181-2.236,47.289-7.861,70.344-15.241,10.323-3.3,29.493-8.452,33.6-20.181,2.436-6.958-4.475-10.469-10.153-12.109-6.294-1.815-12.643-3.72-18.947-5.606-4.162-1.245-9.022-1.331-13.295-2.57,3.447-.458,7.82.026,10.312-.3,4.842-.636,9.337-.886,13.841-2.872,1.325-.583,4-2.623,3.153-4.355a5.853,5.853,0,0,0-2.883-2.651c10.316-1.8,20.7-2.887,31.225-1.9,5.822.545,13.062,3.456,16.36-3.272,3.366-6.871-17.932-14.638-21.479-16.265" transform="translate(0 -565.283)" fill="#794c1c"/>
        <g id="Group_14846" data-name="Group 14846" transform="translate(57.07 805.222)" opacity="0.5" style="mix-blend-mode: multiply;isolation: isolate">
          <g id="Group_14845" data-name="Group 14845">
            <g id="Group_14844" data-name="Group 14844" clip-path="url(#clip-path-3)">
              <path id="Path_27529" data-name="Path 27529" d="M672.545,1496.916c8.191-2.965,17.418-4.63,24.679-9.688,9.222-6.424-2.339-12.066-8.474-13.852-8.915-2.6-18.217-3.678-27.427-4.646-5.852-.615-12.177-.665-17.868-2.3a1,1,0,0,1,0-1.912c8.648-1.845,19.049-1.124,26.3-6.83-10.39-5.8-23.834-1.637-34.894-5.8a1,1,0,0,1,0-1.912c9.289-3.464,18.7-6.754,27.458-11.465,4.9-2.635,22.11-12.359,14.8-20.15-5.422-5.775-17.668-2.149-24.083-.333-7.253,2.052-14.991,4.516-21.375,8.638-.889.576-1.775-.521-1.356-1.357,3.987-7.956-11.241-10.582-16.154-11.129-4.169-.465-16.873-2.169-19.157,2.875a1,1,0,0,1-1.355.356c-7-3.205-17.069-2.074-24.458-1.27-7.2.784-18.221,1.724-23.262,7.725a.987.987,0,0,1-1.4,0c-1.9-2.391-2.2-4.371-2.551-7.351-.5-4.284-3.868-6.881-7.407-8.729a59.005,59.005,0,0,0-18.083-5.464c-13.784-2.205-48.063-3.711-61.957-4.985-31.361-2.876-64.051-3.37-94.466,5.888a23.859,23.859,0,0,0,3.7,4.694c.686.59.087,1.879-.7,1.693-48.734-11.52-76.226,8.914-92.608,7.272a1,1,0,0,1-.263-1.948c1.972-.613,11.335-3.319,6.7-6.326a32.106,32.106,0,0,0-9.387-3.7,124.384,124.384,0,0,0-21.7-3.432c-12.034-.971-26.157-1.567-39.116.977-1.983.586-3.954,1.209-5.895,1.91-7.945,2.872-21.587,8.25-22.926,18.112-1.589,11.713,14.616,18.063,23.431,20.888a1,1,0,0,1,0,1.911c-5.018,1.119-24.792,5.01-19.242,13.089a.994.994,0,0,1-.593,1.456c-15.1,2.969-30.548,4.6-45.4,8.766-7.827,2.2-15.888,4.807-22.922,8.951-2.12,1.247-8.7,4.654-7.677,8.065,1.668,5.542,13.7,6.7,18.3,7.458,6.988,1.159,14.03,1.8,21.073,2.5,1.04.1,1.435,1.7.263,1.948a51.719,51.719,0,0,0-8.038,2.318c-1.809.7-4.37,1.558-5.72,3.075-1.972,2.212,1.914,3.283,2.949,3.593,4.92,1.473,11.347,1.473,15.674,4.407a1,1,0,0,1-.237,1.811c-8.468,3.049-17.808,3.045-26.627,4.364-8.686,1.3-18.59,3.228-24.181,10.563,7.249,1.583,14.8.208,22.059-.747,7.678-1.01,14.5-1.147,22.086.6a128.113,128.113,0,0,1,45.17,20.319c6.137,4.343,12.152,9.125,18.929,12.453a55.342,55.342,0,0,0,20.863,5.407c6.529.459,13.655.688,19.959-1.349a17.114,17.114,0,0,0,4.592-2.026c1.291-.9-2.25-3.555-2.882-4.08a35.364,35.364,0,0,0-11.9-6.5c-.848-.277-1.04-1.75,0-1.912,21.784-3.427,88.97-2.945,110.918-1.654,21.007,1.235,41.786,3.015,62.525,6.7,31.2,5.537,83.306,13.419,115.186,14.053a177.177,177.177,0,0,0,64.955-20.122c-10.592-5.25-22.52-1.489-33.85-3.673a1,1,0,0,1-.237-1.812c26.788-12.667,56.182-18.538,85.2-23.562,20.4-3.529,41.061-7.548,61.813-9.269-9.444-5.914-22.294-6.115-31.978-11.735a1,1,0,0,1,.237-1.812" transform="translate(-98.906 -1395.495)" fill="#794c1c"/>
            </g>
          </g>
        </g>
        <path id="Path_27530" data-name="Path 27530" d="M645.451,1496.479c-6.773-.912-28.823-3.374-25.958-14.973,1.493-6.044,7.261-10.551,11.91-14.2a105.972,105.972,0,0,1,15.994-10.391,205.025,205.025,0,0,1,25.021-10.715c-5.6,1.08-11.09,2.818-16.7,4.281-1.956.513-3.939.958-5.924,1.4-3.905,1.839-7.7,3.721-11.259,5.6-6.23,3.293-12.054,6.8-16.942,11.416-3.02-.927-6.038-1.851-9.073-2.8a205.571,205.571,0,0,0-39.175-7.988c-20.272.643-40.547,2.692-60.857,2.269-16.4-.34-51.681-2.994-67.42-7.509a134.945,134.945,0,0,0-22.1-4.42c-2.07-.241-4.137-.513-6.158-.917-23.571-2.471-47.214-3.845-70.74.171-17.223,2.94-78.789,8.016-96.376,8.243-2.2.028-14.147.207-23.613-1.34a85.242,85.242,0,0,0-7.295-6.234c4.31,6.009,8.483,12.8,8.151,19.688-.306,6.38-4.364,9.685-9.626,12.667a82.425,82.425,0,0,1-22.872,8.771c-2.186.483-4.38.893-6.581,1.26-2.526.844-5.013,1.576-7.376,2.193-6.912,1.8-13.922,3.052-20.767,4.807a67.074,67.074,0,0,0-16.692-2.374c15.861,7.528,35.355,14.554,34.746,33.522a27.044,27.044,0,0,1,2.613,12.758c-.19-.084-.374-.176-.568-.258-12.368-5.229-24.866-5.553-38.106-5.015-7.51.3-15.1.649-22.57,1.459-2.981.324-5.806.862-8.61,1.284,4.7.439,9.413.751,14.114,1.192,5.925.557,11.747,1.547,17.718,1.732,8.368.255,16.63.394,24.821,2.328,17.421,4.109,32.563,12.612,48.834,19.685,8.314,3.615,16.776,6.911,25.669,8.76.357.073.713.145,1.072.216-7.937-3.83-15.965-7.484-23.951-11.21,4.737-.392,9.559-1.277,13.409-1.612a361.961,361.961,0,0,1,37.917-1.266c25.956.439,97.522,1.188,123.293,4.28,25.167,3.018,49.09,11.754,74.266,14.571,7.794.872,35.882,1.292,43.811,1.383,8.448-.9,16.833-2.076,25.039-3.41,7.605-1.237,15.238-2.623,22.932-3.195-15.47.346-30.861.82-46.259-.087,6.44-3.51,13.015-6.728,19.7-9.749,17.008-7.688,33.437-15.05,51.331-20.555a282.692,282.692,0,0,1,48.559-10.811c17.119-3.529,34.7-5.527,51.968-8.415a299.644,299.644,0,0,0-30.829-.747,112.256,112.256,0,0,1,26.642-13.4,18.364,18.364,0,0,0,7.5,2.276,1.318,1.318,0,0,0,.577-.13,116.721,116.721,0,0,0-20.463-9.952c-7.5-2.6-14.96-3.492-22.75-4.538m5.841,25.819a276.575,276.575,0,0,0-58.212,8.169A216.412,216.412,0,0,0,544.138,1550c-3.107,1.676-31.717,17.13-36.8,22.071-4.471-.372-29.135-.873-33.612-1.548-23.531-3.553-45.076-14.248-68.729-17.257-26.279-3.343-97.984-3.491-124.45-3.343-12.319.069-24.6.478-36.753,2.584-6.686,1.16-13.305,2.629-19.973,3.891-3.4.645-7.229,1.976-10.9,2.624-9.885-4.9-19.017-11.015-28.975-15.759,7.464-8.776,3.128-23.885-2.858-32.072a30.916,30.916,0,0,0-7.864-7.36,43.436,43.436,0,0,0,8.659-2.886,110.672,110.672,0,0,0,17.31-7.2,56.557,56.557,0,0,0,9.706-6.584c8.868-3.086,20.5-6.1,24.129-14.557a10.892,10.892,0,0,0-.117-8.586c15.508,1.026,33.907-1.085,38.336-2.257,19.805-5.24,84.582-10.821,105.194-11.4,17.659-.492,35.272,1.393,52.912,2.247,9.689,4.445,20.5,5.983,30.9,8.962,19.751,5.662,60.952,5.042,81.283,4.8,22.97-.267,45.2-3.455,67.652,3.246,2.984.892,5.992,1.888,9.008,2.921a40.478,40.478,0,0,0-2.543,3.382c-4.887,3.743-8.856,8.561-7.152,14.14,2.737,8.978,20.216,11.49,27.362,12.3,8.921,1.01,17.865,1.129,26.828,1.611a45.527,45.527,0,0,1,12.075,2.247,97.81,97.81,0,0,0-23.477,16.076" transform="translate(-46.753 -611.281)" fill="#714021"/>
        <path id="Path_27531" data-name="Path 27531" d="M645.45,1496.479c-6.773-.912-28.822-3.375-25.958-14.973,1.493-6.044,7.262-10.551,11.911-14.2a105.979,105.979,0,0,1,15.993-10.391,204.99,204.99,0,0,1,25.02-10.716c-5.6,1.081-11.09,2.818-16.7,4.282-1.956.512-3.939.958-5.924,1.4-3.9,1.838-7.7,3.721-11.259,5.6-6.23,3.292-12.055,6.8-16.942,11.416-3.021-.927-6.039-1.851-9.073-2.8a205.539,205.539,0,0,0-39.175-7.988c-20.271.643-40.546,2.692-60.857,2.268-16.4-.34-51.681-2.993-67.42-7.509a135.017,135.017,0,0,0-22.1-4.42c-2.071-.24-4.137-.513-6.159-.916-23.571-2.471-47.214-3.845-70.74.171-17.222,2.941-78.789,8.016-96.376,8.244-2.2.028-14.147.207-23.612-1.341a85.25,85.25,0,0,0-7.3-6.233c4.31,6.009,8.483,12.8,8.151,19.687-.306,6.381-4.364,9.685-9.626,12.668a82.426,82.426,0,0,1-22.872,8.771c-2.186.484-4.38.893-6.581,1.26-2.527.844-5.013,1.576-7.377,2.193-6.911,1.8-13.922,3.052-20.766,4.807a67.058,67.058,0,0,0-16.692-2.374c15.862,7.528,35.355,14.554,34.746,33.521a27.05,27.05,0,0,1,2.613,12.758c-.19-.084-.375-.175-.568-.258-12.368-5.229-24.866-5.553-38.107-5.016-7.51.3-15.1.649-22.569,1.459-2.981.324-5.806.861-8.611,1.285,4.7.439,9.413.75,14.114,1.191,5.925.556,11.747,1.548,17.717,1.731,8.368.256,16.63.394,24.821,2.328,17.421,4.11,32.562,12.612,48.833,19.685,8.314,3.616,16.776,6.911,25.67,8.76.356.074.712.145,1.072.216-7.937-3.829-15.965-7.483-23.951-11.209,4.737-.392,9.558-1.277,13.409-1.612a361.69,361.69,0,0,1,37.917-1.266c25.956.439,97.521,1.188,123.293,4.28,25.166,3.018,49.089,11.754,74.266,14.571,7.793.872,35.882,1.292,43.811,1.383,8.447-.9,16.832-2.076,25.039-3.41,7.605-1.236,15.237-2.622,22.932-3.195-15.47.346-30.861.821-46.259-.087,6.44-3.51,13.015-6.728,19.7-9.749,17.008-7.687,33.436-15.05,51.331-20.555a282.669,282.669,0,0,1,48.559-10.811c17.12-3.529,34.7-5.527,51.968-8.415a299.637,299.637,0,0,0-30.829-.747,112.228,112.228,0,0,1,26.643-13.4,18.368,18.368,0,0,0,7.5,2.276,1.323,1.323,0,0,0,.577-.13,116.749,116.749,0,0,0-20.464-9.952c-7.5-2.6-14.96-3.492-22.751-4.538" transform="translate(-46.752 -611.281)" fill="#431f0d"/>
        <path id="Path_27532" data-name="Path 27532" d="M697.254,1526.053a276.575,276.575,0,0,0-58.212,8.169A216.412,216.412,0,0,0,590.1,1553.76c-3.107,1.676-31.717,17.13-36.8,22.071-4.471-.372-29.135-.873-33.612-1.548-23.531-3.553-45.076-14.248-68.729-17.257-26.28-3.343-97.984-3.491-124.45-3.343-12.319.069-24.6.478-36.753,2.584-6.686,1.16-13.305,2.629-19.973,3.891-3.4.645-7.229,1.976-10.9,2.624-9.885-4.9-19.017-11.015-28.975-15.759,7.464-8.776,3.128-23.885-2.858-32.072a30.916,30.916,0,0,0-7.864-7.36,43.437,43.437,0,0,0,8.659-2.886,110.672,110.672,0,0,0,17.31-7.2,56.557,56.557,0,0,0,9.706-6.584c8.868-3.086,20.5-6.1,24.129-14.557a10.892,10.892,0,0,0-.117-8.586c15.508,1.026,33.907-1.085,38.336-2.257,19.805-5.24,84.582-10.821,105.194-11.4,17.659-.492,35.272,1.393,52.912,2.247,9.689,4.445,20.5,5.983,30.9,8.962,19.751,5.662,60.952,5.042,81.283,4.8,22.97-.267,45.2-3.455,67.652,3.246,2.984.892,5.992,1.888,9.008,2.921a40.478,40.478,0,0,0-2.543,3.382c-4.887,3.743-8.856,8.561-7.152,14.14,2.737,8.978,20.216,11.49,27.362,12.3,8.921,1.01,17.865,1.129,26.828,1.611a45.527,45.527,0,0,1,12.075,2.247,97.81,97.81,0,0,0-23.477,16.076" transform="translate(-92.715 -615.036)" fill="#5a3418"/>
        <g id="Group_14849" data-name="Group 14849" transform="translate(209.924 846.442)" opacity="0.6" style="mix-blend-mode: screen;isolation: isolate">
          <g id="Group_14848" data-name="Group 14848">
            <g id="Group_14847" data-name="Group 14847" clip-path="url(#clip-path-4)">
              <path id="Path_27533" data-name="Path 27533" d="M394.907,1513.691c-.848-15.576-1.084-31.166-1.138-46.76-5.133,1.311-10.256,2.684-15.381,4.04a105.981,105.981,0,0,1-14.577,1.916c2.932,16.537,3.547,33.443,5.948,50.094,1.759,12.225,4.639,24.262,7.24,36.342,3.554-.11,7.116-.166,10.682-.187q6.059-.034,12.136-.029c-1.808-15.122-4.081-30.222-4.911-45.416" transform="translate(-363.811 -1466.932)" fill="#5a3418"/>
            </g>
          </g>
        </g>
        <g id="Group_14852" data-name="Group 14852" transform="translate(325.364 839.043)" opacity="0.6" style="mix-blend-mode: screen;isolation: isolate">
          <g id="Group_14851" data-name="Group 14851">
            <g id="Group_14850" data-name="Group 14850" clip-path="url(#clip-path-5)">
              <path id="Path_27534" data-name="Path 27534" d="M575.372,1552.3a246.909,246.909,0,0,0-.42-37.528c-1.69-20.14-1.253-40.429-.632-60.662-1.4,0-2.8-.009-4.2.017-.28,5.559-.662,11.116-1.178,16.661-1.065,11.5-2.935,22.919-3.845,34.43-1.292,16.356-1.228,32.741-1.216,49.127,3.775.169,7.545.4,11.31.654.062-.9.122-1.8.182-2.7" transform="translate(-563.876 -1454.109)" fill="#5a3418"/>
            </g>
          </g>
        </g>
        <g id="Group_14855" data-name="Group 14855" transform="translate(385.982 846.358)" opacity="0.6" style="mix-blend-mode: screen;isolation: isolate">
          <g id="Group_14854" data-name="Group 14854">
            <g id="Group_14853" data-name="Group 14853" clip-path="url(#clip-path-6)">
              <path id="Path_27535" data-name="Path 27535" d="M691.253,1563.945c3.236-14.756,5.958-29.549,10.167-44.079,4.272-14.754,8.877-29.393,12.959-44.2.122-.446.238-.894.359-1.341a117.389,117.389,0,0,1-18.286-3.6c-5.2-1.49-10.505-2.621-15.722-3.935-.386,2.22-.751,4.43-1.052,6.624-2.263,16.544-3.65,33.162-5.654,49.728-1.835,15.186-3.861,30.413-5.094,45.669,6.488,1.947,12.94,4.032,19.448,5.912,1.074-3.572,2.08-7.157,2.874-10.773" transform="translate(-668.931 -1466.786)" fill="#5a3418"/>
            </g>
          </g>
        </g>
        <g id="Group_14858" data-name="Group 14858" transform="translate(516.467 854.219)" opacity="0.6" style="mix-blend-mode: screen;isolation: isolate">
          <g id="Group_14857" data-name="Group 14857">
            <g id="Group_14856" data-name="Group 14856" clip-path="url(#clip-path-7)">
              <path id="Path_27536" data-name="Path 27536" d="M909.432,1516.655q6.075-17.835,11.84-35.772-3.912-.344-7.822-.474c-4.28,15.2-10.5,29.91-13.35,45.515-1.793,9.816-3.114,19.859-5.032,29.746,1.3-.561,2.618-1.077,3.929-1.614,3.228-12.54,6.257-25.136,10.435-37.4" transform="translate(-895.069 -1480.409)" fill="#5a3418"/>
            </g>
          </g>
        </g>
        <path id="Path_27537" data-name="Path 27537" d="M296.662,1540.5c-2.9-13.026-6.04-25.97-9.555-38.843-2.168-7.95-4.034-16.088-7.062-23.754-.39-.022-.782-.037-1.166-.062a10.894,10.894,0,0,1,.117,8.586c-3.63,8.455-15.261,11.471-24.13,14.557a56.534,56.534,0,0,1-9.706,6.584,110.672,110.672,0,0,1-17.31,7.2,43.424,43.424,0,0,1-8.659,2.886,30.919,30.919,0,0,1,7.864,7.36c5.985,8.187,10.322,23.3,2.857,32.072,9.959,4.745,19.09,10.864,28.975,15.759,3.668-.648,7.495-1.979,10.9-2.624,6.667-1.262,13.286-2.732,19.972-3.891,4.063-.7,8.141-1.206,12.229-1.581-1.777-8.084-3.521-16.177-5.322-24.254" transform="translate(-92.714 -625.105)" fill="#41240d"/>
        <path id="Path_27538" data-name="Path 27538" d="M266.5,1561.206c-4.993-12.826-10.552-25.475-15.267-38.416a54.854,54.854,0,0,1-6.072,3.793,110.771,110.771,0,0,1-17.31,7.2,43.519,43.519,0,0,1-8.66,2.885,30.911,30.911,0,0,1,7.864,7.36c5.985,8.187,10.322,23.3,2.858,32.072,9.958,4.745,19.09,10.865,28.975,15.759,3.668-.647,7.495-1.979,10.9-2.623,2.279-.431,4.551-.9,6.826-1.357-3.217-8.943-6.659-17.811-10.11-26.677" transform="translate(-92.714 -644.117)" fill="#301a04"/>
        <path id="Path_27539" data-name="Path 27539" d="M525.116,1559.889c-1.062-11.2-1.458-22.865-5.318-33.511.445,19.3-.185,38.721,1.594,57.928,2.866.029,5.733.066,8.6.125-1.905-8.125-4.082-16.2-4.878-24.542" transform="translate(-219.867 -645.635)" fill="#41240d"/>
        <path id="Path_27540" data-name="Path 27540" d="M535.364,1499.12c3.427-13.858,2.507-28.443,2.216-42.76-3.531.473-7.04,1.081-10.534,1.75,5.572,12.681,4.512,27.664,8.318,41.01" transform="translate(-222.933 -616.018)" fill="#41240d"/>
        <path id="Path_27541" data-name="Path 27541" d="M873.367,1481.064c-4.055.166-8.12.331-12.213.429-2.826,11.265-3.65,23.109-3.874,34.749a147.946,147.946,0,0,1,16.087-35.178" transform="translate(-362.618 -626.467)" fill="#41240d"/>
        <path id="Path_27542" data-name="Path 27542" d="M784.063,1578.555c-1.321-17.8,2.318-36.02,4-53.875-6.264,16-6.9,33.4-11.674,49.894-2.76,9.543-28.172,18.186-30.691,27.79-.191.731-.321,1.468-.472,2.2,3.463.463,27.117.859,30.578,1.146,1.666-1.622,5.87-4.375,10.872-7.4-.925-6.817-2.156-13.55-2.617-19.755" transform="translate(-315.222 -644.916)" fill="#41240d"/>
        <path id="Path_27543" data-name="Path 27543" d="M1009.759,1532.614c-8.963-.481-17.906-.6-26.828-1.61-7.146-.807-24.625-3.319-27.361-12.3a8.924,8.924,0,0,1,.192-5.838c-.373.35-.747.7-1.106,1.077-5.285,5.528-6.534,12.892-8.919,19.865a67.189,67.189,0,0,1-7.718,15.41,101.291,101.291,0,0,0-6.976,12.488c3.011-.933,6.041-1.819,9.1-2.6a276.569,276.569,0,0,1,58.211-8.169,97.8,97.8,0,0,1,23.478-16.075,45.508,45.508,0,0,0-12.076-2.247" transform="translate(-393.818 -639.92)" fill="#41240d"/>
        <path id="Path_27544" data-name="Path 27544" d="M1028.861,1539c-8.963-.481-17.906-.6-26.828-1.61-6.315-.714-20.679-2.765-25.831-9.425a11.364,11.364,0,0,0,5.1,7.844c5.8,3.848,12.425,5.912,18.823,8.511a1.088,1.088,0,0,1,.636,1.56c-2.181,4.364-4.326,8.741-6.316,13.185,7.629-.88,15.318-1.465,23.01-1.743a97.8,97.8,0,0,1,23.478-16.075,45.514,45.514,0,0,0-12.076-2.248" transform="translate(-412.92 -646.305)" fill="#301a04"/>
        <path id="Path_27545" data-name="Path 27545" d="M617.477,1535.23c2.5-18.464,7.859-36.26,11.13-54.615,1.393-7.816,2.082-16.212,3.518-24.371-5.059-.326-10.119-.674-15.178-.971,2.078,26.61-3.22,53.48.53,79.957" transform="translate(-260.599 -615.558)" fill="#41240d"/>
        <g id="Group_14861" data-name="Group 14861" transform="translate(155.629 854.322)" opacity="0.4" style="mix-blend-mode: multiply;isolation: isolate">
          <g id="Group_14860" data-name="Group 14860">
            <g id="Group_14859" data-name="Group 14859" clip-path="url(#clip-path-8)">
              <path id="Path_27546" data-name="Path 27546" d="M730.026,1518.96c-8.963-.481-17.906-.6-26.828-1.61-7.146-.807-24.625-3.319-27.361-12.3-1.7-5.58,2.265-10.4,7.152-14.14a40.588,40.588,0,0,1,2.542-3.382c-3.015-1.032-6.024-2.029-9.008-2.921-.384-.115-.77-.212-1.153-.321-8.547,15.409-17.529,30.582-25.454,46.328a1.066,1.066,0,0,1-1.941-.818c5.055-15.945,7.292-32.744,12.909-48.416-3.08-.384-6.161-.638-9.245-.795-1.883,4.8-3.808,9.586-5.452,14.432-5.107,15.068-9.168,30.7-15.91,45.15-.469,1.005-1.954.451-1.977-.535a164.4,164.4,0,0,1,.663-17.088c-.533,2.595-1.126,5.169-1.911,7.682-4.134,13.228-19.388,20.151-28.785,29.262a1.063,1.063,0,0,1-1.5,0c-3.649-4.376-9.3-6.479-12.837-10.822-2.834-3.476-2.987-5.747-3.249-10.174-.129-2.183.271-8.227.353-10.4-2.189,5.338-26.244,12.254-30.2,16.283a71.357,71.357,0,0,1-14.925,11.083c-4.016,2.325-8.786,4.263-13.487,2.822-7.313-2.242-15.433-7.064-16.709-15.234-1.684-10.765.38-22.122,1.694-34.352-2.232,5.318-5.309,11.97-7.918,17.121-3.02,5.96-6.491,12.724-12.388,16.321a1.062,1.062,0,0,1-1.451-.38,18.756,18.756,0,0,1-1.727-9.928c-2.984,7.236-5.861,14.519-8.542,21.88a1.086,1.086,0,0,1-1.3.743c-5.428-1.186-10.545-2.79-16.171-2.085-.606.077-.885-.571-1.062-1.061-2.347-6.491-3.864-12.653-5.873-19.262.5,11.742.943,15.669.036,22.978a1.067,1.067,0,0,1-2.085.281c-4.734-11.638-7.576-26.8-8.251-38.888-.67,2.763-1.312,7.873-2.588,11.121-1.658,4.22-2.491,6.779-5.812,10.625a7.274,7.274,0,0,1-2.493,1.47c-24.831,1.325-73.072-26.693-75.619-47.635a261.016,261.016,0,0,0-2.295,56.656,1.059,1.059,0,0,1-.78,1.024c-3.543,1.059-8.21,4.058-11.963,2.016s-5.316-6.577-9.021-8.492c-4.308-2.223-7.9-3.957-11.084-7.909-.959-1.191-2.969-4.8-3.83-6.052a101.448,101.448,0,0,1-1.574,22.881,1.067,1.067,0,0,1-1.307.739c-7.327-1.992-12.108-2.621-17.784-7.822-6.535-5.987-10.661-13.549-13.766-19.324,2.261,9.642,4.876,20.933,1.08,30.941-2.219,5.849-7.1,8.808-12.121,11.663,3.468,1.975,6.954,3.913,10.544,5.692,3.668-.648,7.495-1.979,10.9-2.624,6.667-1.262,13.286-2.732,19.972-3.891,12.152-2.107,24.434-2.516,36.753-2.585,26.465-.149,98.17,0,124.45,3.343,23.653,3.009,45.2,13.7,68.729,17.257,4.477.675,29.142,1.176,33.612,1.548,5.082-4.941,33.692-20.4,36.8-22.071a216.408,216.408,0,0,1,48.942-19.539,276.585,276.585,0,0,1,58.211-8.169,97.793,97.793,0,0,1,23.478-16.075,45.509,45.509,0,0,0-12.076-2.248" transform="translate(-269.715 -1480.588)" fill="#3b2009"/>
            </g>
          </g>
        </g>
        <path id="Path_27547" data-name="Path 27547" d="M793.14,540.319s1.007-5.63,31.729-8.448c18.561-1.7,16.441-16.929-.475-18.187-17.021-1.265-30.894,11.638-31.254,26.635" transform="translate(-335.487 -217.243)" fill="#91ccf0"/>
        <path id="Path_27548" data-name="Path 27548" d="M807.5,31.1C836.656,19.7,815.64-4.85,785.842.838,755.861,6.561,747.4,34.585,764,59.89c0,0-4.767-9.9,43.5-28.785" transform="translate(-319.618 0.004)" fill="#91ccf0"/>
        <path id="Path_27549" data-name="Path 27549" d="M964.763,237.883c-20.5-2.6-39.378,12.229-42.142,30.446,0,0,2.1-6.785,39.9-8.3,22.838-.914,22.621-19.564,2.242-22.149" transform="translate(-390.256 -100.493)" fill="#91ccf0"/>
        <path id="Path_27550" data-name="Path 27550" d="M386.859,450.158c2.29-27.792-24.085-61.892-55.845-60.906-31.586.982-35.284,38.126-1.242,42.76,54.579,7.43,56.987,17.524,57.087,18.147" transform="translate(-129.327 -164.637)" fill="#91ccf0"/>
        <path id="Path_27551" data-name="Path 27551" d="M534.742,994.226S547.535,760.1,555.483,704.863q.538-3.55,1.087-7.108c0-.016.005-.034.008-.05q.2-1.19.356-2.3c1.486-9.566,3.029-19.145,4.624-28.6h.006l.052-.329q.017-.087.035-.208c.04-.214.075-.433.11-.652.029-.173.058-.364.1-.571.04-.225.075-.45.115-.674l.017-.1c2.522-14.2,9.423-74.475,47.246-108.779,0,0,19.7-14.333,17.507-30.1-1.639-11.777-22.988-27.847-43.2-1.3-.329.421-20.432,30.414-24.552,62.473-1.01,7.876-18.943,12.919-21.655-5.429a309,309,0,0,1-.2-51.286h.006s7.974-76.356,71.105-86.777c.006,0,.012-.006.017-.006h.237c2.527-.093,23.1-.958,34.754-6.33,12.388-5.707,15.123-18.817,12.908-26.307a.307.307,0,0,1-.023-.069c-3.8-10.7-17.484-21.124-47.881-15.515-33.49,6.174-63.068,42.433-63.068,42.433-4.091-77.013,38.158-120.019,86.69-124.641,31.251-2.971,68.393.537,73.742-24.529,4.755-22.341-20.49-32.018-20.49-32.018-37.269-11.044-76.368,12.544-98.675,29.884-6.849,5.326-15.441-1.437-13.306-9.844,7.761-30.582,16.93-44.228,56.663-67.811,40.881-24.263,55.261-47.846,36.664-68.053C643.3,115.064,609.2,137.4,609.2,137.4c-55.774,36.386-69.894,142.084-71.913,159.994-.086.992-.179,1.864-.265,2.591-.831,6.583-3.716,8.533-6.393,8.84a6.34,6.34,0,0,1-6.439-3.849c-22.763-51.6,5.384-112.6,15.608-131.848a70.531,70.531,0,0,0,7.518-22.388c1.223-8.108.877-15.643-2.112-21.9-11.9-24.927-61.013-34.223-74.031,14.137s24.552,165.563,24.552,165.563,2.85,8.43,0,12.654-7.322,7.686-9.8-4.224c-2.475-11.881-24.154-65.243-38.337-80.378-9.642-8.655-24.248-2.862-29.255,4.98-4.823,7.554-6.349,19.984,15.1,31.25,22.5,11.817,36.346,52.445,41.447,66.6,8.563,23.756,7.813,94.872,1.494,108.64s-17.628,13.606-23.444,10.415-30.7-49.15-39.849-65.283c-14.472-25.492-49.075-20.662-59.109,2.037-10.052,22.693,16.364,37.575,16.364,37.575s18.545,13.328,39.543,31.527c0,0,37.921,38.562,61.112,137.987,0,0-29.237-32.284-37.125-51.913s-27.443-20.606-33.334-6.867,5.9,21.586,5.9,21.586a207.96,207.96,0,0,1,32.465,25.415c.006.008,26.131,29.7,38.233,76.106q1.7,7.373,3.275,15v0c.38,2.159.781,4.123,1.2,5.907C498.836,774.045,507,987.838,507,987.838" transform="translate(-148.76 -45.849)" fill="#91ccf0"/>
        <path id="Path_27552" data-name="Path 27552" d="M370.664,604.506c5.969,13.911,20.907-6.48,59.29,20.672,0,0-15.074-30.351-33.694-37.275-16.465-6.123-28.6,9.594-25.6,16.6" transform="translate(-156.592 -248.085)" fill="#aee6ff"/>
        <path id="Path_27553" data-name="Path 27553" d="M327.443,419.943c15.6-.259,23.382-9.432,46.382,0,0,0-10.443-20.938-36.957-18.85-19.71,1.552-18.767,19.005-9.426,18.85" transform="translate(-135.789 -169.593)" fill="#aee6ff"/>
        <path id="Path_27554" data-name="Path 27554" d="M769.743,191.95S786.1,163.941,812.9,160.7s27.78,21.827,27.78,21.827-9.14-11.062-38.8-5.174c-22.558,4.478-32.138,14.6-32.138,14.6" transform="translate(-325.591 -67.848)" fill="#aee6ff"/>
        <path id="Path_27555" data-name="Path 27555" d="M577.512,161.327c-.89,1.193,2.976-27.532,24.8-31.748s30.508,18.6,30.508,18.6-34.228-15.13-55.311,13.146" transform="translate(-244.231 -54.588)" fill="#aee6ff"/>
        <path id="Path_27556" data-name="Path 27556" d="M778.195,18.216S796.53,2.27,813.742,9.389c14.612,6.043-1.484,17.454-1.484,17.454s1.076-7.413-12.993-9.666c-9.526-1.526-21.071,1.039-21.071,1.039" transform="translate(-329.166 -3.195)" fill="#aee6ff"/>
        <path id="Path_27557" data-name="Path 27557" d="M480.964,346.394c8.723,3.271,15.92-2.181,27.26,5.888,0,0-6.4-22.993-21.269-20.436-12.316,2.117-10.255,12.949-5.991,14.548" transform="translate(-202.04 -140.28)" fill="#aee6ff"/>
        <path id="Path_27558" data-name="Path 27558" d="M765.444,630.443s32.219-10.917,54.464,11.982c0,0,9.276-23.88-16.076-27.151-28.833-3.72-38.388,15.17-38.388,15.17" transform="translate(-323.772 -260.045)" fill="#aee6ff"/>
        <path id="Path_27559" data-name="Path 27559" d="M979.121,1493.738s8.372,1.044,13.346,1.417c19.223,3.331,18.834,12.116,17.961,22.639-1.868,22.536,2,61.619-19.756,94.813-2.087,1.987-10.037,6.242-46.492.332-37.225-5.965-47.219-15.646-47.219-15.646s23.21-35.031,23.188-87.337c.879-8.353,2.99-13.876,9.615-15.48,10.825-2.62,26.621-3.02,26.621-3.02Z" transform="translate(-379.402 -630.862)" fill="#9c8c91"/>
        <path id="Path_27560" data-name="Path 27560" d="M1030.109,1622.724s18.95-47.744,17.97-79.065c-.267-24.138-.215-26.2-.215-26.2l-25.7-2.939s-16.125,19.587-17.21,33.188c4.279,6,12.893-12.76,17.246-18.872s19.732-8.625,19.539,19.75-6.555,63.421-11.629,74.136" transform="translate(-425.081 -640.619)" fill="#7a6c71"/>
        <path id="Path_27561" data-name="Path 27561" d="M959.574,1518.839c-.6-.462-24.864-1.485-27.467,1.527-1.037.777-3.492,34.2-12.827,61.415-8.874,20.677-18.99,28.166-18.341,28.577,0,0,20.017-19.073,26.184-38.628s7.918-37.482,12.851-40.888,12.781-4.626,16.005-1.66c2.485,2.287,2.512,6.057,3.453,18.272,3.359-17.033,2.812-26.551.142-28.616" transform="translate(-381.072 -642.215)" fill="#7a6c71"/>
        <path id="Path_27562" data-name="Path 27562" d="M1036.109,1129.207s-2.641,5.46-7.146,32.835S1008.4,1308.33,1009.9,1315.571s16.711,4.078,16.711,4.078l1.133-3.635c11.926-65.338,11.98-65.33,18.034-107.615,5.852-40.875,7.281-72.142,7.281-72.142s-11.729-16.447-16.952-7.051" transform="translate(-427.132 -476.41)" fill="#664115"/>
        <path id="Path_27563" data-name="Path 27563" d="M1045.4,1015.764s-4.234,8.72-.607,17.982c1.018.355,14.216,3.846,43.075,5.4,4.559-1.7,5.937-15.975,3.411-19.039-1.358-1.985-45.627-5.7-45.878-4.346" transform="translate(-441.314 -429.53)" fill="#664115"/>
        <path id="Path_27564" data-name="Path 27564" d="M1032.982,1019.3s-.129-2.1,1.694-2.363,5.568.885,5.332,1.673-.7,21.883,2.37,27.816c1.311,3.13,13.13,8.315,30.677,5.253,7.36-1.531,12.11-13.469,12.11-13.469s4.012-7.262,2.433-15.5c1.97-.764,6.584,1.674,6.915,3.837s-4.317,27.689-11.6,31.867c-4.377,2.512-12.378,2.921-13.6,5.521s-5.231,31.826-5.836,32.3a1.207,1.207,0,0,1-1.167.242s-.715-3.546-9.88-4.281c-9.106-.978-9.367.13-9.367.13l-.3,1.3s-1.165-.467-.175-3.606,4.158-24.681,3.366-26.745-10.488-9.2-11.9-14.3-1.908-20.859-1.082-29.673" transform="translate(-436.768 -430.132)" fill="#a0989f"/>
        <path id="Path_27565" data-name="Path 27565" d="M1036.2,1018.813s-1.868,23.986,2.16,30.323c4.213,6.458,14.031,9.2,23.666,7.994-2.731-.867-18.771-.561-21.582-11.776s-1.8-27.05-1.8-27.05-2.343-1.007-2.445.509" transform="translate(-438.117 -430.588)" fill="#d1cfd1"/>
        <path id="Path_27566" data-name="Path 27566" d="M1102.543,1027.595s3.9,1.843,3.817,3.475-3.486,19.648-7.348,26.761c-3.957,6.656-7.547,6.319-14.126,8.388-3.21,1.565-3.771,1.2-4.641,6.06-.882,4.919-4.015,32.247-6.079,28.725-1.65-1.971-3.214-4.011-13.575-4.6,4.883-.891,9.977.6,11.277-1.583s3.259-24.966,6.1-28.162,13.637-4.962,17.07-8.387,8.566-24.112,8.734-27.008-1.229-3.668-1.229-3.668" transform="translate(-448.615 -434.656)" fill="#7c777c"/>
        <path id="Path_27567" data-name="Path 27567" d="M1055.655,1099.471l-3.37,25.878a41.082,41.082,0,0,1,13.781.231c-2.107-1.716-10.025-.743-10.283-5s.683-19.8-.128-21.112" transform="translate(-445.102 -465.059)" fill="#d1cfd1"/>
        <g id="Group_14864" data-name="Group 14864" transform="translate(586.511 661.792)" opacity="0.4" style="mix-blend-mode: multiply;isolation: isolate">
          <g id="Group_14863" data-name="Group 14863">
            <g id="Group_14862" data-name="Group 14862" clip-path="url(#clip-path-9)">
              <path id="Path_27568" data-name="Path 27568" d="M1036.252,1147.327s15.789-2.321,19.247,4.151c1.328,5.27-9.056,84.668-14.138,113.279s-10.864,62.438-11.932,63.612c-2.644.411-11.168.754-12.969-.187a11.089,11.089,0,0,0,12.412-8.616c1.532-6.194,24.494-160.514,20.621-166.442s-13.24-5.8-13.24-5.8" transform="translate(-1016.46 -1146.922)" fill="#3b2009"/>
            </g>
          </g>
        </g>
        <g id="Group_14867" data-name="Group 14867" transform="translate(602.281 586.234)" opacity="0.4" style="mix-blend-mode: multiply;isolation: isolate">
          <g id="Group_14866" data-name="Group 14866">
            <g id="Group_14865" data-name="Group 14865" clip-path="url(#clip-path-10)">
              <path id="Path_27569" data-name="Path 27569" d="M1059.95,1016.239s29.515,2.217,31.528,4.082c1.817,1.857,1.822,15.627-3.41,19.039-7.055-.439-35.909-2.495-43.075-5.4-.859-.871-1.4-6.651-1.133-10.6.382-6.17,1.74-7.378,1.74-7.378-.852,2.243-.029,12.264,3.7,15.685,4.526,4.15,31.781,5.1,35.626,2.627s5.368-9.333,4.352-12.142-29.33-5.905-29.33-5.905" transform="translate(-1043.791 -1015.976)" fill="#3b2009"/>
            </g>
          </g>
        </g>
        <g id="Group_14870" data-name="Group 14870" transform="translate(606.534 587.862)" opacity="0.6" style="mix-blend-mode: screen;isolation: isolate">
          <g id="Group_14869" data-name="Group 14869">
            <g id="Group_14868" data-name="Group 14868" clip-path="url(#clip-path-11)">
              <path id="Path_27570" data-name="Path 27570" d="M1051.157,1018.8c.385.155,27.013.493,36.228,4.687-7.405-.575-25.544-.211-35.844-4.532" transform="translate(-1051.159 -1018.796)" fill="#5a3418"/>
            </g>
          </g>
        </g>
        <g id="Group_14873" data-name="Group 14873" transform="translate(586.673 665.078)" opacity="0.6" style="mix-blend-mode: screen;isolation: isolate">
          <g id="Group_14872" data-name="Group 14872">
            <g id="Group_14871" data-name="Group 14871" clip-path="url(#clip-path-12)">
              <path id="Path_27571" data-name="Path 27571" d="M1038.247,1152.616s-22.393,137.211-21.475,168.749c1.579-5.969,24.427-157.023,21.475-168.749" transform="translate(-1016.742 -1152.616)" fill="#5a3418"/>
            </g>
          </g>
        </g>
        <path id="Path_27572" data-name="Path 27572" d="M1027.388,1406.337s-11.472-5.374-21.813-3.11c-.62,1.992-.989,40.057-4.45,44.963s-4.369,7.6-3.327,11.5c.868,3.255,3.811,28.937,3.9,38.95.018,2.005,1.862,3.186,3.513.611,6.3-9.821,16.691-37.924,16.392-43.071-.665-5.8-1.738-5.354-.27-10.88,8.267-40.741,6.056-38.967,6.056-38.967" transform="translate(-421.883 -593.308)" fill="#87777d"/>
        <path id="Path_27573" data-name="Path 27573" d="M1013.688,1405.716s15.772-.072,16.927,4.549c.777,2.57-7.569,37.558-7.2,42.614.263,4.808-6.446,35.358-14.95,45.537,5-4.408,13.178-40.753,12.263-46.447.668-6.062,5.944-30.81,5.077-37.972s-12.112-8.281-12.112-8.281" transform="translate(-426.565 -594.596)" fill="#baaab0"/>
        <path id="Path_27574" data-name="Path 27574" d="M1022.77,1430.177a3.072,3.072,0,1,1,4.015,1.661,3.072,3.072,0,0,1-4.015-1.661" transform="translate(-432.518 -603.145)" fill="#63555a"/>
        <path id="Path_27575" data-name="Path 27575" d="M1011.854,1495.108a3.072,3.072,0,1,1,4.015,1.661,3.072,3.072,0,0,1-4.015-1.661" transform="translate(-427.901 -630.61)" fill="#63555a"/>
        <path id="Path_27576" data-name="Path 27576" d="M1009.489,1525.664a3.073,3.073,0,1,1,4.015,1.661,3.072,3.072,0,0,1-4.015-1.661" transform="translate(-426.901 -643.535)" fill="#63555a"/>
        <path id="Path_27577" data-name="Path 27577" d="M1041.112,1503.3s22.781,2.882,24.446,7.8,2.339,57.7-9.214,87.149c8.142-9.309,17.252-65.967,12.241-88.779-1.013-6.873-14.467-7.452-27.473-6.167" transform="translate(-440.376 -635.643)" fill="#ccc4c7"/>
        <path id="Path_27578" data-name="Path 27578" d="M957.081,1499.663s-19.713-2.678-25.733,2.823c-4.772,1.695-4.979,10.519-4.751,16.473s-5.461,54.4-19.2,74.425c4.554-1.452,18.373-32.255,22.588-67.164,1-19.2,5.467-21.055,5.467-21.055Z" transform="translate(-383.815 -634.059)" fill="#ccc4c7"/>
        <path id="Path_27579" data-name="Path 27579" d="M768.1,1673.006c18.095,1.814,36.018-5.656,48.387-11.611,13.357-6.431,23.861-14.057,37.427-11.956,9.432,1.46,17.644,14.051,27.18,14.457,8.785.373,17.354-2.381,25.923-4.354s17.831-3.126,25.938.28c4.905,2.061,9.019,5.649,13.794,8s10.927,3.244,15.131-.017a85.1,85.1,0,0,1-74.925,20.474c-14.353-3.1-27.788-9.876-42.295-12.149-8.073-1.266-16.905.9-25.076,1.064-16.86.339-33.108-1.328-49.968-.99.832-.456-2.46-3.29-1.517-3.2" transform="translate(-324.824 -697.537)" fill="#794c1c"/>
        <path id="Path_27580" data-name="Path 27580" d="M1013.266,1641.1a7.533,7.533,0,0,0-1.564,2.965,3.241,3.241,0,0,0,.865,3.1c1.243,1.077,3.138.67,4.715.2l13.253-3.932c2.722-.808,5.755-1.874,6.941-4.454a5.135,5.135,0,0,0-1.053-5.669c-2.838-2.767-8.935-1.219-12.194-.069a24.028,24.028,0,0,0-10.964,7.852" transform="translate(-427.901 -690.212)" fill="#794c1c"/>
        <path id="Path_27581" data-name="Path 27581" d="M947.46,1654.859a8.65,8.65,0,0,0,4.039,3.074c1.659.449,3.768-.35,4.139-2.028.39-1.761-1.207-3.321-2.783-4.2s-3.427-1.624-4.2-3.255c-1.312-2.779,1.132-5.962-.644-8.672-1.359-2.075-4.55-2.706-6.339-.844-4.378,4.555,2.959,12.6,5.785,15.923" transform="translate(-397.74 -692.778)" fill="#794c1c"/>
      </g>
    </g>
  </g>
</svg>
