<svg xmlns="http://www.w3.org/2000/svg" width="45.204" height="45.204" viewBox="0 0 45.204 45.204">
  <g id="Group_14545" data-name="Group 14545" transform="translate(1236.308 -709.815) rotate(90)">
    <g id="Rectangle_1066" data-name="Rectangle 1066" transform="translate(709.815 1191.104)" fill="none">
      <path d="M22.516,0h.173A22.5,22.5,0,0,1,45.2,22.516v.172A22.5,22.5,0,0,1,22.689,45.2h-.173A22.5,22.5,0,0,1,0,22.688v-.172A22.5,22.5,0,0,1,22.516,0Z" stroke="none"/>
      <path d="M 22.68857002258301 44.13175582885742 C 23.41240310668945 44.13175582885742 24.13079071044922 44.09633255004883 24.84251022338867 44.02571868896484 C 25.55422782897949 43.95511245727539 26.25927925109863 43.84932327270508 26.95644569396973 43.7086067199707 C 27.65361213684082 43.56789016723633 28.34289169311523 43.39223480224609 29.02306747436523 43.18189239501953 C 29.7032413482666 42.97154998779297 30.37431144714355 42.72651672363281 31.03505897521973 42.44705200195312 C 31.67339897155762 42.17705535888672 32.29548645019531 41.8779182434082 32.90033340454102 41.55030059814453 C 33.50518035888672 41.22268295288086 34.0927848815918 40.86659622192383 34.66214752197266 40.48270034790039 C 35.23151016235352 40.09880447387695 35.78263473510742 39.68711090087891 36.31452560424805 39.24828338623047 C 36.84641265869141 38.80945205688477 37.35906600952148 38.3434944152832 37.85148620605469 37.85107421875 C 38.34391021728516 37.35865020751953 38.80986785888672 36.84599685668945 39.24869155883789 36.31410598754883 C 39.68751907348633 35.78221893310547 40.09921646118164 35.23109817504883 40.48311233520508 34.66173553466797 C 40.86700439453125 34.09237289428711 41.22309112548828 33.50476837158203 41.55070877075195 32.89992523193359 C 41.87832641601562 32.29507827758789 42.17746353149414 31.67298889160156 42.44746017456055 31.0346508026123 C 42.72693252563477 30.37390327453613 42.97196197509766 29.70283317565918 43.18230438232422 29.02265739440918 C 43.39265060424805 28.34248161315918 43.56830596923828 27.65320014953613 43.70902252197266 26.95603561401367 C 43.8497428894043 26.25886917114258 43.95552825927734 25.55381774902344 44.0261344909668 24.84209823608398 C 44.09674072265625 24.13038063049316 44.13216781616211 23.4119930267334 44.13216781616211 22.68815994262695 L 44.13216781616211 22.51577377319336 C 44.13216781616211 21.79194068908691 44.09674072265625 21.07355308532715 44.0261344909668 20.36183547973633 C 43.95552825927734 19.65011596679688 43.8497428894043 18.94506454467773 43.70902252197266 18.24790000915527 C 43.56830596923828 17.55073356628418 43.39265060424805 16.86145210266113 43.18230438232422 16.18127632141113 C 42.97196197509766 15.50110149383545 42.72693252563477 14.83003044128418 42.44746017456055 14.16928386688232 C 42.17746353149414 13.53094482421875 41.87832641601562 12.90885448455811 41.55070877075195 12.3040075302124 C 41.22309112548828 11.69916248321533 40.86700439453125 11.1115608215332 40.48311233520508 10.54219722747803 C 40.09921646118164 9.972833633422852 39.68751907348633 9.421710968017578 39.24869155883789 8.889822006225586 C 38.80986785888672 8.357934951782227 38.34391021728516 7.84528112411499 37.85148620605469 7.352858066558838 C 37.35906600952148 6.860437870025635 36.84641265869141 6.394477844238281 36.31452560424805 5.955649852752686 C 35.78263473510742 5.516821384429932 35.23151016235352 5.105124950408936 34.66214752197266 4.721231937408447 C 34.0927848815918 4.337338447570801 33.50518035888672 3.981248378753662 32.90033340454102 3.653633117675781 C 32.29548645019531 3.326018095016479 31.67339897155762 3.026877880096436 31.03505897521973 2.756884098052979 C 30.37431144714355 2.477412462234497 29.7032413482666 2.232382297515869 29.02306747436523 2.022040367126465 C 28.34289169311523 1.811698436737061 27.65361213684082 1.636044144630432 26.95644569396973 1.495323896408081 C 26.25927925109863 1.35460352897644 25.55422782897949 1.248817324638367 24.84251022338867 1.178211092948914 C 24.13079071044922 1.10760486125946 23.41240310668945 1.072178721427917 22.68857002258301 1.072178721427917 L 22.51577758789062 1.072178721427917 C 21.79194450378418 1.072178721427917 21.07355690002441 1.10760486125946 20.36183738708496 1.178211092948914 C 19.65011978149414 1.248817324638367 18.94506645202637 1.35460352897644 18.24790191650391 1.495323896408081 C 17.55073547363281 1.636044144630432 16.8614559173584 1.811698436737061 16.18127822875977 2.022040367126465 C 15.5011043548584 2.232382297515869 14.83003425598145 2.477412462234497 14.16928672790527 2.756884098052979 C 13.53094863891602 3.026877880096436 12.90885829925537 3.326018095016479 12.30401229858398 3.653633117675781 C 11.69916534423828 3.981248378753662 11.11156272888184 4.337338447570801 10.54220008850098 4.721231937408447 C 9.972837448120117 5.105124950408936 9.421713829040527 5.516821384429932 8.889825820922852 5.955649852752686 C 8.357936859130859 6.394477844238281 7.845283031463623 6.860437870025635 7.352860450744629 7.352858066558838 C 6.860440731048584 7.84528112411499 6.39448070526123 8.357934951782227 5.955652236938477 8.889822006225586 C 5.516823768615723 9.421710968017578 5.105127334594727 9.972833633422852 4.72123384475708 10.54219722747803 C 4.337340354919434 11.1115608215332 3.981250762939453 11.69916248321533 3.65363597869873 12.3040075302124 C 3.326020956039429 12.90885448455811 3.026880502700806 13.53094482421875 2.756886959075928 14.16928386688232 C 2.477415323257446 14.83003044128418 2.232385158538818 15.50110149383545 2.022043228149414 16.18127632141113 C 1.81170117855072 16.86145210266113 1.636047005653381 17.55073356628418 1.495326638221741 18.24790000915527 C 1.35460638999939 18.94506454467773 1.248820066452026 19.65011596679688 1.178213834762573 20.36183547973633 C 1.10760772228241 21.07355308532715 1.072181582450867 21.79194068908691 1.072181582450867 22.51577377319336 L 1.072181582450867 22.68815994262695 C 1.072181582450867 23.4119930267334 1.10760772228241 24.13038063049316 1.178213834762573 24.84209823608398 C 1.248820066452026 25.55381774902344 1.35460638999939 26.25886917114258 1.495326638221741 26.95603561401367 C 1.636047005653381 27.65320014953613 1.81170117855072 28.34248161315918 2.022043228149414 29.02265739440918 C 2.232385158538818 29.70283317565918 2.477415323257446 30.37390327453613 2.756886959075928 31.0346508026123 C 3.026880502700806 31.67298889160156 3.326020956039429 32.29507827758789 3.65363597869873 32.89992523193359 C 3.981250762939453 33.50476837158203 4.337340354919434 34.09237289428711 4.72123384475708 34.66173553466797 C 5.105127334594727 35.23109817504883 5.516823768615723 35.78221893310547 5.955652236938477 36.31410598754883 C 6.39448070526123 36.84599685668945 6.860440731048584 37.35865020751953 7.352860450744629 37.85107421875 C 7.845283031463623 38.3434944152832 8.357936859130859 38.80945205688477 8.889825820922852 39.24828338623047 C 9.421713829040527 39.68711090087891 9.972837448120117 40.09880447387695 10.54220008850098 40.48270034790039 C 11.11156272888184 40.86659622192383 11.69916534423828 41.22268295288086 12.30401229858398 41.55030059814453 C 12.90885829925537 41.8779182434082 13.53094863891602 42.17705535888672 14.16928672790527 42.44705200195312 C 14.83003425598145 42.72651672363281 15.5011043548584 42.97154998779297 16.18127822875977 43.18189239501953 C 16.8614559173584 43.39223480224609 17.55073547363281 43.56789016723633 18.24790191650391 43.7086067199707 C 18.94506645202637 43.84932327270508 19.65011978149414 43.95511245727539 20.36183738708496 44.02571868896484 C 21.07355690002441 44.09633255004883 21.79194450378418 44.13175582885742 22.51577758789062 44.13175582885742 L 22.68857002258301 44.13175582885742 M 22.68857002258301 45.20393371582031 L 22.51577758789062 45.20393371582031 C 19.40699577331543 45.20393371582031 16.44537162780762 44.57389068603516 13.75162124633789 43.43453216552734 C 11.05787086486816 42.29517364501953 8.631996154785156 40.6464958190918 6.594719886779785 38.60921859741211 C 4.557442665100098 36.57193756103516 2.90876317024231 34.14606475830078 1.769402980804443 31.45231628417969 C 0.6300427317619324 28.75856781005859 1.78522122951108e-06 25.79694175720215 1.78522122951108e-06 22.68815994262695 L 1.78522122951108e-06 22.51577377319336 C 1.78522122951108e-06 19.40699195861816 0.6300427317619324 16.44536781311035 1.769402980804443 13.75161647796631 C 2.90876317024231 11.0578670501709 4.557442665100098 8.631993293762207 6.594719409942627 6.59471607208252 C 8.631996154785156 4.55743932723999 11.05787086486816 2.90876030921936 13.75162124633789 1.769400119781494 C 16.44537162780762 0.6300399303436279 19.40699577331543 -1.047704927259474e-06 22.51577758789062 -1.047704927259474e-06 L 22.68857002258301 -1.047704927259474e-06 C 25.79734992980957 -1.047704927259474e-06 28.75897598266602 0.6300399303436279 31.45272636413574 1.769400119781494 C 34.14647674560547 2.90876030921936 36.57235336303711 4.55743932723999 38.6096305847168 6.59471607208252 C 40.64690399169922 8.631993293762207 42.29558181762695 11.0578670501709 43.4349479675293 13.75161647796631 C 44.57430648803711 16.44536781311035 45.204345703125 19.40699195861816 45.204345703125 22.51577377319336 L 45.204345703125 22.68815994262695 C 45.204345703125 25.79694175720215 44.57430648803711 28.75856781005859 43.4349479675293 31.45231628417969 C 42.29558181762695 34.14606475830078 40.64690399169922 36.57193756103516 38.6096305847168 38.60921859741211 C 36.57235336303711 40.6464958190918 34.14647674560547 42.29517364501953 31.45272636413574 43.43453216552734 C 28.75897598266602 44.57389068603516 25.79734992980957 45.20393371582031 22.68857002258301 45.20393371582031 Z" stroke="none" fill="#fff"/>
    </g>
    <path id="Icon_awesome-chevron-right" data-name="Icon awesome-chevron-right" d="M10.471,9.551,2.583,17.44a.973.973,0,0,1-1.378,0l-.92-.92a.973.973,0,0,1,0-1.376L6.535,8.862.284,2.581a.973.973,0,0,1,0-1.376l.92-.92a.973.973,0,0,1,1.378,0l7.888,7.888a.973.973,0,0,1,0,1.378Z" transform="translate(728.039 1204.843)" fill="#fff"/>
  </g>
</svg>
