<svg id="Group_14841" data-name="Group 14841" xmlns="http://www.w3.org/2000/svg" xmlns:xlink="http://www.w3.org/1999/xlink" width="121.222" height="121.222" viewBox="0 0 121.222 121.222">
  <defs>
    <clipPath id="clip-path">
      <rect id="Rectangle_1140" data-name="Rectangle 1140" width="121.222" height="121.222" fill="none"/>
    </clipPath>
  </defs>
  <g id="Group_14840" data-name="Group 14840" clip-path="url(#clip-path)">
    <path id="Path_27526" data-name="Path 27526" d="M76.521,95.859c-8.946-.473-15.613-3.107-21.069-8C43.033,76.709,33.95,63.367,32.128,46.387c-.5-4.625.928-9.905,2.945-14.191,1.281-2.72,5.012-5.041,8.12-6,7.133-2.193,9.7-.165,10.675,7.108.329,2.463.339,4.978.792,7.414.8,4.3-.411,7.48-4.5,9.384-2.6,1.214-3.459,3.089-1.851,5.661,3.712,5.94,7.353,11.929,11.251,17.744,2.129,3.175,4.946,3.986,8.086,1.022,2.58-2.436,5.433-2.447,8.492-.891,2.341,1.191,4.784,2.182,7.13,3.364,2.832,1.426,6.106,2.454,5.915,6.665-.2,4.4-1.695,8.169-5.754,10.144a35.145,35.145,0,0,1-6.911,2.044" fill="#f5a287"/>
    <circle id="Ellipse_29" data-name="Ellipse 29" cx="59.111" cy="59.111" r="59.111" transform="translate(1.5 1.5)" fill="none" stroke="#fff" stroke-width="3"/>
  </g>
</svg>
