<svg xmlns="http://www.w3.org/2000/svg" width="49.401" height="49.401" viewBox="0 0 49.401 49.401">
  <path id="design" d="M38.19,27.119a5.9,5.9,0,0,0-2.123-9.236V11.368a2.368,2.368,0,0,0-4.736,0v6.515a5.9,5.9,0,0,0-2.123,9.236L22.783,51.1a.7.7,0,0,0,0,.347l1.56,6.417a.7.7,0,0,0,.672.535h.008a.7.7,0,0,0,.676-.519l7.689-28.695c.1.006.21.009.316.009s.211,0,.316-.009L41.7,57.882a.7.7,0,0,0,.676.519h.008a.7.7,0,0,0,.672-.535l1.56-6.417a.7.7,0,0,0,0-.347ZM32.732,11.368a.968.968,0,0,1,1.936,0v6.1a5.85,5.85,0,0,0-1.936,0Zm-7.68,43.505-.87-3.581,6.2-23.123A5.885,5.885,0,0,0,32,28.945Zm4.143-31.582A4.505,4.505,0,1,1,33.7,27.8,4.51,4.51,0,0,1,29.195,23.291ZM42.348,54.873,35.4,28.945a5.885,5.885,0,0,0,1.622-.776l6.2,23.123ZM11.716,39.314a.7.7,0,0,1-.486.862c-.443.123-.887.255-1.321.391a.7.7,0,1,1-.418-1.336c.448-.14.907-.276,1.363-.4A.7.7,0,0,1,11.716,39.314ZM17.2,38.183a.7.7,0,0,1-.575.806c-.455.076-.913.158-1.361.244A.7.7,0,1,1,15,37.858c.459-.088.928-.172,1.395-.25A.7.7,0,0,1,17.2,38.183Zm4.923.137c-.46.037-.925.078-1.381.124a.7.7,0,0,1-.139-1.393c.465-.047.939-.089,1.409-.126a.7.7,0,0,1,.111,1.4Zm35.731,9.914c0,3.738-4.318,7.123-11.847,9.289a.7.7,0,1,1-.387-1.345c6.784-1.952,10.834-4.921,10.834-7.944,0-3.378-5.031-6.651-13.131-8.54a.7.7,0,1,1,.318-1.363A32.091,32.091,0,0,1,53.78,42.3c2.664,1.759,4.072,3.812,4.072,5.937ZM24.708,16.854a7.854,7.854,0,1,0-9.583,7.662L14.793,35.8a.7.7,0,0,0,.7.721h2.722a.7.7,0,0,0,.7-.721l-.332-11.28A7.891,7.891,0,0,0,24.708,16.854Zm-14.309,0a6.454,6.454,0,1,1,8.14,6.23l-.013-.453,2.458-2.687a.7.7,0,0,0-.022-.967L19.9,17.917a.7.7,0,0,0-.967-.021l-.593.542-.042-.945a.7.7,0,0,0-.7-.669H16.1a.7.7,0,0,0-.7.669l-.042.945-.592-.542a.7.7,0,0,0-.967.021l-1.059,1.059a.7.7,0,0,0-.022.967l2.458,2.687-.013.453a6.486,6.486,0,0,1-4.768-6.23Zm5.815,18.262.375-12.728a.7.7,0,0,0-.183-.493l-2.2-2.4.113-.112,1.2,1.1A.7.7,0,0,0,16.7,20l.079-1.773h.159L17.012,20a.7.7,0,0,0,1.172.485l1.2-1.1.113.113-2.2,2.4a.7.7,0,0,0-.183.493l.375,12.728h-1.28Zm32.6-10.6L48.485,35.8a.7.7,0,0,0,.7.721h2.722a.7.7,0,0,0,.7-.721l-.332-11.28a7.854,7.854,0,1,0-3.456,0Zm1.088,10.6.375-12.728A.7.7,0,0,0,50.1,21.9l-2.2-2.4.112-.112,1.2,1.1A.7.7,0,0,0,50.388,20l.079-1.773h.159L50.7,20a.7.7,0,0,0,1.172.485l1.2-1.1.113.112-2.2,2.4a.7.7,0,0,0-.183.493l.375,12.728Zm.64-24.717a6.454,6.454,0,0,1,1.686,12.685l-.013-.453,2.458-2.687a.7.7,0,0,0-.022-.967L53.6,17.917a.7.7,0,0,0-.967-.021l-.592.542-.042-.945a.7.7,0,0,0-.7-.669H49.8a.7.7,0,0,0-.7.669l-.042.945-.592-.542a.7.7,0,0,0-.967.021l-1.059,1.059a.7.7,0,0,0-.022.967l2.458,2.687-.013.453A6.454,6.454,0,0,1,50.546,10.4Z" transform="translate(-8.999 -9)" fill="#fff9f4"/>
</svg>
