<svg id="Group_14843" data-name="Group 14843" xmlns="http://www.w3.org/2000/svg" xmlns:xlink="http://www.w3.org/1999/xlink" width="121.222" height="121.222" viewBox="0 0 121.222 121.222">
  <defs>
    <clipPath id="clip-path">
      <rect id="Rectangle_1141" data-name="Rectangle 1141" width="121.222" height="121.222" fill="none"/>
    </clipPath>
  </defs>
  <g id="Group_14842" data-name="Group 14842" clip-path="url(#clip-path)">
    <path id="Path_27527" data-name="Path 27527" d="M60.7,86.667c-11.279,0-22.559-.086-33.836.05-3.628.044-5.088-1.329-5.062-4.954q.147-21.147.021-42.3c-.026-3.689,1.545-4.979,5.086-4.968q33.625.1,67.251-.007c3.818-.016,5.312,1.447,5.284,5.239q-.153,20.936,0,41.873c.028,3.84-1.518,5.181-5.327,5.122-11.136-.173-22.276-.061-33.414-.06M30.919,38.687a5.485,5.485,0,0,0,.744,1.284c8.959,7.537,17.969,15.014,26.877,22.61,1.8,1.533,2.975,1.281,4.662-.16,8.473-7.237,17.054-14.347,25.575-21.528a19.3,19.3,0,0,0,1.893-2.206Zm-2.4,43.626h64.19L69.618,62.969c-3.131,2.372-5.959,6.2-8.708,6.143-2.977-.061-5.881-3.741-8.82-5.838a3.6,3.6,0,0,0-.571-.232l-23,19.271M72.94,59.955,95.05,78.49V41.417L72.94,59.955M26.068,78.592,48.316,59.955,26.068,41.343Z" fill="#f5a287"/>
    <circle id="Ellipse_30" data-name="Ellipse 30" cx="59.111" cy="59.111" r="59.111" transform="translate(1.5 1.5)" fill="none" stroke="#fff" stroke-width="3"/>
  </g>
</svg>
