<svg xmlns="http://www.w3.org/2000/svg" width="50.002" height="50" viewBox="0 0 50.002 50">
  <g id="gardening" transform="translate(0 -0.008)">
    <g id="Group_14890" data-name="Group 14890" transform="translate(0 0.008)">
      <path id="Path_27587" data-name="Path 27587" d="M49.263,324.689h-5.2a4.624,4.624,0,0,0-3.39-2.321,4.649,4.649,0,0,0-1.292-1c0-1.224.008-3.076.061-5.031l.065,0a6.447,6.447,0,0,0,6.109-4.2,1.561,1.561,0,0,0-.014-1.019,1.594,1.594,0,0,0-1.889-1.011,8.824,8.824,0,0,0-4.1,2.417,42.472,42.472,0,0,1,.57-4.969.739.739,0,0,0-1.451-.278c-.12.627-.224,1.331-.318,2.1a8.7,8.7,0,0,0-4.491-2.879,1.592,1.592,0,0,0-1.889,1.011,1.561,1.561,0,0,0-.014,1.019,6.446,6.446,0,0,0,6.1,4.194c-.054.868-.1,1.794-.133,2.794-.068,2.006-.081,3.972-.084,5.359a4.52,4.52,0,0,0-2.538.328,5.724,5.724,0,0,0-5.614.851,4.609,4.609,0,0,0-4.19-1.114c0-1.331.013-2.917.06-4.613l.065,0a6.447,6.447,0,0,0,6.109-4.2,1.561,1.561,0,0,0-.014-1.019,1.594,1.594,0,0,0-1.891-1.008,8.824,8.824,0,0,0-4.1,2.417,42.471,42.471,0,0,1,.57-4.969.739.739,0,0,0-1.451-.278c-.12.627-.224,1.331-.318,2.1a8.7,8.7,0,0,0-4.491-2.879,1.592,1.592,0,0,0-1.889,1.011,1.561,1.561,0,0,0-.014,1.019,6.446,6.446,0,0,0,6.1,4.194c-.054.868-.1,1.793-.133,2.794-.069,2.025-.082,3.932-.084,5.482a5.673,5.673,0,0,0-4.443.7,4.627,4.627,0,0,0-4.558-.493,5.7,5.7,0,0,0-3.342-.238c0-1.336.012-2.933.06-4.638l.065,0a6.447,6.447,0,0,0,6.109-4.2,1.561,1.561,0,0,0-.014-1.019,1.594,1.594,0,0,0-1.888-1.008,8.824,8.824,0,0,0-4.1,2.417,42.471,42.471,0,0,1,.57-4.969.739.739,0,0,0-1.451-.278c-.12.627-.224,1.331-.318,2.1A8.7,8.7,0,0,0,6.289,306.5,1.592,1.592,0,0,0,4.4,307.513a1.561,1.561,0,0,0-.014,1.019,6.446,6.446,0,0,0,6.1,4.194c-.054.868-.1,1.793-.133,2.794-.077,2.255-.084,4.44-.084,6.014a5.753,5.753,0,0,0-1.859,1.6A4.14,4.14,0,0,0,6,324.687H.739a.738.738,0,0,0,0,1.477H49.263a.738.738,0,0,0,0-1.477ZM33.423,308.056a.117.117,0,0,1,.008-.053.11.11,0,0,1,.1-.076.09.09,0,0,1,.023,0,7.022,7.022,0,0,1,4.311,3.31,5,5,0,0,1-4.443-3.184Zm10.662,3.482a.083.083,0,0,1,.023,0,.109.109,0,0,1,.1.076.126.126,0,0,1,.008.052,5,5,0,0,1-4.443,3.185,7.022,7.022,0,0,1,4.311-3.309ZM19.6,308.056a.116.116,0,0,1,.008-.053.11.11,0,0,1,.1-.076.09.09,0,0,1,.023,0,7.022,7.022,0,0,1,4.311,3.31A5,5,0,0,1,19.6,308.056Zm-13.819,0A.116.116,0,0,1,5.793,308a.11.11,0,0,1,.1-.076.09.09,0,0,1,.023,0,7.022,7.022,0,0,1,4.311,3.31A5,5,0,0,1,5.785,308.056Zm10.662,3.482a.083.083,0,0,1,.023,0,.109.109,0,0,1,.1.076.126.126,0,0,1,.008.052,5,5,0,0,1-4.443,3.185,7.022,7.022,0,0,1,4.311-3.309Zm13.819,0a.083.083,0,0,1,.023,0,.109.109,0,0,1,.1.076.126.126,0,0,1,.008.052,5,5,0,0,1-4.443,3.185,7.022,7.022,0,0,1,4.311-3.309Zm-21.9,13.151a2.7,2.7,0,0,1,.573-.147.738.738,0,0,0,.511-.322,4.274,4.274,0,0,1,5.348-1.53.74.74,0,0,0,.655-.021,3.151,3.151,0,0,1,3.647.5.738.738,0,0,0,.959.044,4.247,4.247,0,0,1,4.4-.52.738.738,0,0,0,.63-.011l.031-.013a3.165,3.165,0,0,1,3.975.858.738.738,0,0,0,.492.278l.076.01a.74.74,0,0,0,.586-.219,4.252,4.252,0,0,1,4.828-.9.74.74,0,0,0,.655-.021,3.165,3.165,0,0,1,3.982.855.737.737,0,0,0,.529.281,3.152,3.152,0,0,1,1.977.884Z" transform="translate(0 -276.164)" fill="#fff9f4"/>
      <path id="Path_27588" data-name="Path 27588" d="M4.533,14.9,16.386,22.25a.738.738,0,0,0,1.017-.238l.015-.025,3.609-6.369,6.248.14-.011.07a.738.738,0,0,0,.615.844h0a.758.758,0,0,0,.114.009.739.739,0,0,0,.729-.625l.776-5a.738.738,0,0,0-1.455-.253c0,.009,0,.017,0,.026l-.022.138-3.9-.8,1.35-2.384a.738.738,0,0,0-.253-.992L14.457.119a.738.738,0,0,0-1,.214l-.506.748a5.795,5.795,0,0,0-6.468,9.57L4.31,13.862a.738.738,0,0,0,.2,1.025l.026.017ZM16.511,20.59,5.964,14.053l.591-.875,10.476,6.493ZM8.592,5.189a1.793,1.793,0,0,1,2.089-.753L8.754,7.287a1.79,1.79,0,0,1-.162-2.1Zm19.2,7.232-.241,1.557-.045.308-5.65-.127,1.5-2.644ZM14.282,1.748,23.834,7.67,17.758,18.387,7.383,11.953l.738-1.091C8.126,10.854,14.282,1.748,14.282,1.748ZM5.906,7.125a4.322,4.322,0,0,1,6.215-4.817l-.594.879A3.269,3.269,0,0,0,7.906,8.545l-.595.879A4.274,4.274,0,0,1,5.906,7.125Z" transform="translate(-3.77 -0.008)" fill="#fff9f4"/>
      <path id="Path_27589" data-name="Path 27589" d="M146.4,102.168a.738.738,0,0,0,1.006-.277h0l1.224-2.157a.738.738,0,0,0-1.27-.754l-.015.026-1.224,2.156a.738.738,0,0,0,.278,1.007h0Z" transform="translate(-131.591 -88.87)" fill="#fff9f4"/>
      <path id="Path_27590" data-name="Path 27590" d="M264.771,151.923a.735.735,0,0,0,.738-.731v-.008a.821.821,0,0,0-.013-.143c-.013-.046-.025-.093-.042-.139a.886.886,0,0,0-.068-.127.842.842,0,0,0-.093-.114.768.768,0,0,0-1.046,0,.586.586,0,0,0-.089.114.618.618,0,0,0-.072.127c-.017.046-.03.093-.042.139a.825.825,0,0,0-.013.143.735.735,0,0,0,.731.738Z" transform="translate(-237.935 -135.585)" fill="#fff9f4"/>
      <path id="Path_27591" data-name="Path 27591" d="M298.767,178.39a.738.738,0,1,0-.536-.232.726.726,0,0,0,.536.232Z" transform="translate(-268.572 -159.427)" fill="#fff9f4"/>
      <path id="Path_27592" data-name="Path 27592" d="M323.4,213.943a.741.741,0,0,0,.662-1.068v0a.738.738,0,1,0-.662,1.063Z" transform="translate(-290.776 -191.479)" fill="#fff9f4"/>
      <path id="Path_27593" data-name="Path 27593" d="M336.77,253.6a1.2,1.2,0,0,0-.127-.068c-.046-.017-.093-.03-.139-.042a.737.737,0,0,0-.882.726.822.822,0,0,0,.013.143c.013.046.025.093.042.139a.753.753,0,0,0,.072.127.6.6,0,0,0,.089.114.76.76,0,0,0,.523.215.82.82,0,0,0,.143-.013c.046-.013.093-.025.139-.042a.756.756,0,0,0,.127-.072.583.583,0,0,0,.2-.2.747.747,0,0,0,.072-.127c.017-.046.03-.093.042-.139a.82.82,0,0,0,.013-.143.759.759,0,0,0-.215-.523A.827.827,0,0,0,336.77,253.6Z" transform="translate(-302.448 -228.426)" fill="#fff9f4"/>
      <path id="Path_27594" data-name="Path 27594" d="M269.319,122.579a.739.739,0,1,0-.143-1.464c-.046.013-.093.025-.139.042a.753.753,0,0,0-.127.072.6.6,0,0,0-.114.089.738.738,0,0,0,.523,1.262Z" transform="translate(-242.031 -109.132)" fill="#fff9f4"/>
      <path id="Path_27595" data-name="Path 27595" d="M305.076,130.008a.768.768,0,0,0,.236.038.737.737,0,1,0-.236-.038Z" transform="translate(-274.468 -115.864)" fill="#fff9f4"/>
      <path id="Path_27596" data-name="Path 27596" d="M366.136,170.039a.742.742,0,1,0-.548-.249A.727.727,0,0,0,366.136,170.039Z" transform="translate(-329.282 -151.895)" fill="#fff9f4"/>
      <path id="Path_27597" data-name="Path 27597" d="M386.886,200.323a.717.717,0,0,0,.333-.08.739.739,0,1,0-.333.08Z" transform="translate(-347.978 -179.191)" fill="#fff9f4"/>
      <path id="Path_27598" data-name="Path 27598" d="M337.91,146.01a.7.7,0,0,0,.405.122A.739.739,0,1,0,337.9,146Z" transform="translate(-304.209 -130.359)" fill="#fff9f4"/>
      <path id="Path_27599" data-name="Path 27599" d="M400.766,233.4a.821.821,0,0,0,.013.143c.013.046.025.093.042.139a1.2,1.2,0,0,0,.068.127.845.845,0,0,0,.093.114.738.738,0,0,0,1.262-.523.821.821,0,0,0-.013-.143c-.013-.046-.025-.093-.042-.139a.755.755,0,0,0-.072-.127.583.583,0,0,0-.2-.2.748.748,0,0,0-.127-.072c-.046-.017-.093-.03-.139-.042a.76.76,0,0,0-.667.2.84.84,0,0,0-.093.114,1.2,1.2,0,0,0-.068.127c-.017.046-.03.093-.042.139A.831.831,0,0,0,400.766,233.4Z" transform="translate(-361.153 -209.67)" fill="#fff9f4"/>
    </g>
  </g>
</svg>
