<svg id="Group_144" data-name="Group 144" xmlns="http://www.w3.org/2000/svg" xmlns:xlink="http://www.w3.org/1999/xlink" width="122.505" height="117.096" viewBox="0 0 122.505 117.096">
  <defs>
    <clipPath id="clip-path">
      <rect id="Rectangle_41" data-name="Rectangle 41" width="122.505" height="117.096" fill="#fff"/>
    </clipPath>
  </defs>
  <g id="Group_143" data-name="Group 143" clip-path="url(#clip-path)">
    <path id="Path_151" data-name="Path 151" d="M122.46,31.992c0-.013,0-.027-.007-.041a1.669,1.669,0,0,0-.121-.325l0,0,0,0c-.013-.025-.031-.046-.045-.07a1.713,1.713,0,0,0-.143-.22c-.023-.029-.051-.052-.076-.079a1.667,1.667,0,0,0-.165-.164c-.032-.026-.068-.047-.1-.071a1.688,1.688,0,0,0-.18-.116c-.04-.021-.082-.037-.124-.055a1.73,1.73,0,0,0-.192-.072c-.018,0-.033-.014-.051-.019C92.492,23.332,64.235,50.941,55.5,60.493,54.19,47.795,46.54,12.576,2.258.073A1.658,1.658,0,0,0,1.845,0c-.037,0-.073,0-.11,0a1.711,1.711,0,0,0-.261.023c-.041.007-.08.014-.121.024A1.688,1.688,0,0,0,1.1.136C1.066.15,1.033.16,1,.176a1.672,1.672,0,0,0-.314.2l0,0,0,0C.673.391.668.4.661.405A1.669,1.669,0,0,0,.423.659C.4.689.382.721.361.753a1.712,1.712,0,0,0-.129.23C.216,1.02.2,1.058.187,1.1a1.643,1.643,0,0,0-.07.253C.11,1.386.1,1.422.1,1.459c-.016.126-.107.254-.094.382C3.7,40.718,34.236,58.809,52.245,66.219v49.2a1.725,1.725,0,0,0,3.449,0V66.294c9.579-.284,54.563-3.219,66.656-33.29.006-.015.027-.032.033-.048a1.706,1.706,0,0,0,.066-.2c.01-.043.028-.086.035-.13a1.724,1.724,0,0,0,.017-.232c0-.035.007-.07,0-.1a1.655,1.655,0,0,0-.044-.3M4.2,7.273,48.349,60.764C31.841,52.96,9.443,37.093,4.2,7.273m2.453-2.3c37.5,13.027,44.3,43.2,45.508,55.141Zm104.8,27.91a36.889,36.889,0,0,1,4.118.239l-55.9,27.885c8.765-9.077,29.78-28.124,51.784-28.124M64.792,62.2l52.36-26.118c-10.78,18.68-37.377,24.381-52.36,26.118" transform="translate(0 0)" fill="#fff"/>
  </g>
</svg>
