<svg id="Group_148" data-name="Group 148" xmlns="http://www.w3.org/2000/svg" xmlns:xlink="http://www.w3.org/1999/xlink" width="84.134" height="126.495" viewBox="0 0 84.134 126.495">
  <defs>
    <clipPath id="clip-path">
      <rect id="Rectangle_43" data-name="Rectangle 43" width="84.133" height="126.495" fill="#fff"/>
    </clipPath>
  </defs>
  <g id="Group_147" data-name="Group 147" clip-path="url(#clip-path)">
    <path id="Path_162" data-name="Path 162" d="M39.657.027A1.665,1.665,0,0,0,38.3.386a1.7,1.7,0,0,0-.627,1.252c-.7,18.075,14.759,22.689,18.464,23.533C85.426,70.8,72.6,123.848,72.468,124.381a1.7,1.7,0,0,0,3.3.829c.139-.548,13.374-55.133-16.893-102.074-.1-3.312-1.462-20.152-19.217-23.109M41.075,3.8C52.673,6.737,54.947,17,55.381,21.493c-4.3-1.238-13.822-5.364-14.306-17.7" transform="translate(-23.023 0)" fill="#fff"/>
    <path id="Path_163" data-name="Path 163" d="M51.132,248.842a1.7,1.7,0,0,0-.2-1.514C50.388,246.54,37.388,228,7.293,228c-1.871,0-3.8.075-5.721.22a1.7,1.7,0,0,0-1.225,2.727c12.8,16.835,28.116,20.368,38.711,20.368a39.379,39.379,0,0,0,10.979-1.4,1.709,1.709,0,0,0,1.095-1.068m-12.074-.93c-9.27,0-22.455-2.939-33.956-16.476q1.106-.034,2.191-.035c22.457,0,34.948,11.191,39.176,15.851a41.151,41.151,0,0,1-7.412.66" transform="translate(0 -139.41)" fill="#fff"/>
    <path id="Path_164" data-name="Path 164" d="M172.683,145.98A1.711,1.711,0,0,0,170.9,144.5c-7.607.44-13.685,3.221-18.069,8.265-8.724,10.041-7.567,25.37-7.513,26.018a1.695,1.695,0,0,0,1.694,1.562,1.726,1.726,0,0,0,.509-.077c.282-.089,28.371-9.177,25.165-34.286M148.65,176.225c.037-4.446.833-14.437,6.757-21.244,3.447-3.96,8.172-6.295,14.061-6.949,1.238,17.538-14.844,25.757-20.819,28.193" transform="translate(-88.804 -88.352)" fill="#fff"/>
    <path id="Path_165" data-name="Path 165" d="M77.761,122.482a2.015,2.015,0,0,0,1.655-2.378,18.7,18.7,0,0,0-.608-2.006c-1.894-5.333-8-17.868-23.747-18.7a1.708,1.708,0,0,0-1.271.473,2.144,2.144,0,0,0-.519,1.442c.359,19.932,24.191,21.17,24.432,21.17ZM56.8,102.964c11.658,1.51,16.692,10.741,18.534,15.5-5.287-.744-17.168-3.722-18.534-15.5" transform="translate(-32.572 -60.775)" fill="#fff"/>
    <path id="Path_166" data-name="Path 166" d="M110.4,58.4a1.7,1.7,0,0,0,.789-.193c.3-.16,7.474-3.973,8.489-10.219.54-3.306-.712-6.568-3.719-9.694a1.7,1.7,0,0,0-2.282-.154c-4.168,3.3-6.506,6.98-6.948,10.925a12.531,12.531,0,0,0,2.346,8.7,1.7,1.7,0,0,0,1.325.635m4.151-16.545a7.178,7.178,0,0,1,1.771,5.576c-.515,3.194-3.57,5.707-5.376,6.934-1.126-2.255-2.347-7.1,3.6-12.51" transform="translate(-65.216 -23.095)" fill="#fff"/>
  </g>
</svg>
