<svg id="Group_146" data-name="Group 146" xmlns="http://www.w3.org/2000/svg" xmlns:xlink="http://www.w3.org/1999/xlink" width="111.483" height="126.495" viewBox="0 0 111.483 126.495">
  <defs>
    <clipPath id="clip-path">
      <rect id="Rectangle_42" data-name="Rectangle 42" width="111.483" height="126.495" fill="#fff"/>
    </clipPath>
  </defs>
  <g id="Group_145" data-name="Group 145" clip-path="url(#clip-path)">
    <path id="Path_152" data-name="Path 152" d="M123.351,74.559c23.642-21.536-1.13-71.528-2.2-73.646A1.736,1.736,0,0,0,119.648,0a1.659,1.659,0,0,0-1.481.953c-1.041,2.211-25.182,54.379,3.124,73.749a1.665,1.665,0,0,0,2.059-.143M119.73,5.738C124.71,17,139.071,53.9,122.079,71.172c-20.526-15.649-7.064-53.865-2.349-65.433" transform="translate(-66.748)" fill="#fff"/>
    <path id="Path_153" data-name="Path 153" d="M169.159,126.567c12.927-3.491,21.981-9.83,26.911-18.84,7.184-13.133,2.925-27.026,2.741-27.61a1.662,1.662,0,0,0-2.982-.4l-28.5,44.345a1.662,1.662,0,0,0,1.4,2.561,1.686,1.686,0,0,0,.434-.057m27.28-41.652c.716,4.763,1.073,13.274-3.3,21.25-3.926,7.156-10.831,12.484-20.555,15.874Z" transform="translate(-103.65 -48.985)" fill="#fff"/>
    <path id="Path_154" data-name="Path 154" d="M68.8,126.658a1.709,1.709,0,0,0,.418.053,1.661,1.661,0,0,0,1.382-2.584L41.2,80.053a1.661,1.661,0,0,0-2.976.452c-.172.584-4.13,14.458,3.254,27.5,5.1,9,14.29,15.277,27.322,18.656M40.686,85.275l24.6,36.874c-9.815-3.312-16.834-8.6-20.9-15.752-4.49-7.9-4.315-16.361-3.7-21.122" transform="translate(-22.961 -49.208)" fill="#fff"/>
    <path id="Path_155" data-name="Path 155" d="M217.127,181.4a1.654,1.654,0,0,0-1.8-.71l-43.363,10.746a1.661,1.661,0,0,0-.328,3.107,35.548,35.548,0,0,0,15.643,3.789c17.771,0,29.274-14.389,29.755-15a1.662,1.662,0,0,0,.089-1.929m-29.844,13.607a30.665,30.665,0,0,1-9.567-1.571l32.733-8.112c-4.567,4.05-12.785,9.683-23.166,9.683" transform="translate(-105.909 -112.073)" fill="#fff"/>
    <path id="Path_156" data-name="Path 156" d="M30.09,200.931A34.619,34.619,0,0,0,46.5,196.478a1.767,1.767,0,0,0,.858-1.773,1.707,1.707,0,0,0-1.3-1.428L2.007,183.907a1.659,1.659,0,0,0-1.779.776,1.89,1.89,0,0,0,.184,2.079c.5.572,12.485,14.169,29.676,14.169Zm10.324-5.39a30.009,30.009,0,0,1-10.324,1.973h0c-9.923,0-18.138-5.179-22.853-8.966Z" transform="translate(0 -114.077)" fill="#fff"/>
    <path id="Path_157" data-name="Path 157" d="M208.954,238.913l-29.952-10a1.662,1.662,0,0,0-2.152,1.919c1.678,7.949,9.214,12.152,21.792,12.152a59.079,59.079,0,0,0,10.1-.867,1.662,1.662,0,0,0,.213-3.208m-27.681-5.734,19.325,6.449c-6.715.244-15.852-.626-19.325-6.449" transform="translate(-109.7 -141.972)" fill="#fff"/>
    <path id="Path_158" data-name="Path 158" d="M189.426,268.193,173.3,257.324a1.664,1.664,0,0,0-1.773-.052,1.94,1.94,0,0,0-.81,1.747c.01.126,1.266,12.74,14.769,12.74h0a25.9,25.9,0,0,0,3.232-.392,1.77,1.77,0,0,0,.71-3.175m-14-5.431,7.673,5.159a10.164,10.164,0,0,1-7.673-5.159" transform="translate(-105.91 -159.475)" fill="#fff"/>
    <path id="Path_159" data-name="Path 159" d="M69.516,229.9a1.58,1.58,0,0,0-.521-1.533,1.643,1.643,0,0,0-1.631-.311L37.412,238.064a1.667,1.667,0,0,0-1.132,1.693,1.557,1.557,0,0,0,1.345,1.425,65.746,65.746,0,0,0,10.1.77h0c12.578,0,20.112-4.1,21.79-12.051m-21.79,8.635h0c-.67,0-1.323.132-1.954.109L65.1,232.122c-3.147,5.278-10.917,6.413-17.37,6.413" transform="translate(-22.506 -141.433)" fill="#fff"/>
    <path id="Path_160" data-name="Path 160" d="M94.4,256.489a1.667,1.667,0,0,0-1.771.052L76.5,267.387a1.661,1.661,0,0,0,.71,3.027,24.668,24.668,0,0,0,3.236.224c13.5,0,14.757-12.445,14.767-12.571a1.662,1.662,0,0,0-.811-1.578M82.823,267.14l7.723-5.193a10.122,10.122,0,0,1-7.723,5.193" transform="translate(-47.006 -158.989)" fill="#fff"/>
    <path id="Path_161" data-name="Path 161" d="M145.516,207.4a1.7,1.7,0,0,0-1.708,1.661v44.447a1.709,1.709,0,0,0,3.416,0V209.064a1.7,1.7,0,0,0-1.708-1.661" transform="translate(-89.222 -128.677)" fill="#fff"/>
  </g>
</svg>
