<svg xmlns="http://www.w3.org/2000/svg" width="47.372" height="45.204" viewBox="0 0 47.372 45.204">
  <g id="growth" transform="translate(0 -0.467)">
    <path id="Path_27600" data-name="Path 27600" d="M23.528,218.546a12.116,12.116,0,0,1-4.827-1l-7.3-3.175a27.7,27.7,0,0,0-8.3-2.164l-2.4-.24A.772.772,0,0,1,0,211.2v-7.524a.771.771,0,0,1,.155-.463c.179-.24,4.478-5.856,11.045-4.395a27.886,27.886,0,0,1,8.511,3.5,8.593,8.593,0,0,0,4.539,1.269h7.3a3.508,3.508,0,0,1,2.984,1.665l6.29-7.247a6.673,6.673,0,0,1,5.3-2.626h.47a.772.772,0,0,1,.707,1.083L41.618,209.4a10.137,10.137,0,0,1-6.775,5.714l-1,.25-5.823,2.329A12.111,12.111,0,0,1,23.528,218.546ZM1.544,210.5l1.7.171a29.254,29.254,0,0,1,8.766,2.285l7.3,3.175a10.621,10.621,0,0,0,8.13.12l5.87-2.348a.8.8,0,0,1,.1-.032l1.052-.263a8.58,8.58,0,0,0,5.736-4.837l5.189-11.793a5.161,5.161,0,0,0-3.366,2l-6.968,8.031c0,.03,0,.06,0,.09a3.512,3.512,0,0,1-3.508,3.508H21.363a12.286,12.286,0,0,0-3.891.631l-.284-.72-.24-.734.039-.013a13.818,13.818,0,0,1,4.375-.709h10.19a1.964,1.964,0,0,0,0-3.929h-7.3a10.136,10.136,0,0,1-5.352-1.5,26.341,26.341,0,0,0-8.032-3.305c-4.973-1.1-8.551,2.713-9.321,3.624V210.5Zm0,0" transform="translate(0 -172.875)" fill="#fff9f4"/>
    <path id="Path_27601" data-name="Path 27601" d="M230.836,103.727a9.061,9.061,0,0,1-3.984-1.1.776.776,0,0,1-.382-.431c-.06-.167-1.439-4.135.753-7.07,1.593-2.133,4.589-3.094,8.909-2.853a.771.771,0,0,1,.727.732c.015.307.334,7.542-3.356,9.951A4.772,4.772,0,0,1,230.836,103.727Zm-3-2.338c2.028.951,3.649,1.044,4.824.277,2.188-1.429,2.661-5.671,2.672-7.878-3.385-.083-5.689.68-6.873,2.264C227.052,97.937,227.6,100.531,227.837,101.389Zm0,0" transform="translate(-200.433 -81.394)" fill="#fff9f4"/>
    <path id="Path_27602" data-name="Path 27602" d="M105.264,12.218a7.224,7.224,0,0,1-4.326-1.3C98.6,9.2,97.526,5.942,97.744,1.223A.772.772,0,0,1,98.47.488c.334-.019,8.238-.441,10.9,3.551,1.239,1.858,1.137,4.292-.3,7.235a.771.771,0,0,1-.427.386A10.66,10.66,0,0,1,105.264,12.218Zm3.109-1.282h.008ZM99.264,2.007c-.067,3.779.8,6.355,2.586,7.663,2.136,1.565,5.053.9,5.97.633,1.049-2.277,1.138-4.094.263-5.407C106.457,2.456,101.69,1.979,99.264,2.007Zm0,0" transform="translate(-86.667 0)" fill="#fff9f4"/>
    <path id="Path_27603" data-name="Path 27603" d="M148.019,70.735c-.024,0-.049,0-.073,0a.772.772,0,0,1-.7-.807q.068-1.362.229-2.586c.321-5.463.155-18.185-7.888-21.7a.772.772,0,1,1,.619-1.414c4.74,2.074,7.722,7.237,8.622,14.931.081.69.141,1.369.186,2.031,2.118-5.353,5.359-7.245,5.552-7.353a.772.772,0,0,1,.759,1.344c-.082.048-5.051,3.03-6.3,12.227-.095,1.573-.232,2.577-.245,2.668A.772.772,0,0,1,148.019,70.735Zm0,0" transform="translate(-123.393 -38.747)" fill="#fff9f4"/>
  </g>
</svg>
