<svg xmlns="http://www.w3.org/2000/svg" xmlns:xlink="http://www.w3.org/1999/xlink" width="948.876" height="570.437" viewBox="0 0 948.876 570.437">
  <defs>
    <clipPath id="clip-path">
      <rect id="Rectangle_39" data-name="Rectangle 39" width="948.876" height="570.437" fill="none"/>
    </clipPath>
    <clipPath id="clip-path-2">
      <rect id="Rectangle_38" data-name="Rectangle 38" width="948.875" height="570.437" fill="none"/>
    </clipPath>
  </defs>
  <g id="Group_14548" data-name="Group 14548" opacity="0.499">
    <g id="Group_141" data-name="Group 141" clip-path="url(#clip-path)">
      <g id="Group_140" data-name="Group 140" transform="translate(0 0)">
        <g id="Group_139" data-name="Group 139" clip-path="url(#clip-path-2)">
          <g id="Group_138" data-name="Group 138" transform="translate(0 0)" opacity="0.3">
            <g id="Group_137" data-name="Group 137">
              <g id="Group_136" data-name="Group 136" clip-path="url(#clip-path)">
                <path id="Path_150" data-name="Path 150" d="M618.609,445.094c22.805-19.981,41.722-44.534,52.068-73.238,1.053-2.921-1.906-6-4.781-4.1-48.462,32.088-107.744,47.959-165.756,46.33a237.679,237.679,0,0,1-46.624-6.4c16.969-12.122,38.628-13.4,58.924-14.393,21.278-1.042,42.326-3.128,63.237-7.311a450.474,450.474,0,0,0,60.156-16.962c20.144-7.036,38.954-16.384,58.2-25.437,37.909-17.832,71.026-45.766,98.949-76.766,30.94-34.349,54.671-75.286,76.924-115.561C896.8,102.582,922.85,53.375,948.689,4.13a1.983,1.983,0,0,0-1.413-2.785A476.519,476.519,0,0,0,797.86,13.8a.285.285,0,0,0-.23.023l-.1.06a472.929,472.929,0,0,0-48.495,14.741.426.426,0,0,0-.558-.179,22.66,22.66,0,0,0-2.758,1.392c-.252.094-.506.183-.758.277-16.105,6.029-32.56,12.558-47.468,21.2a.273.273,0,0,0-.421-.2,39.117,39.117,0,0,0-5.46,4.133c-12.647,9.707-20.3,24.138-28.889,37.541l-33.1,51.662c-5.647,8.812-11.092,17.8-16.97,26.461-2.841,4.187-9.277,12.849-15.3,9.6-8.189-4.424,1.575-18.974,4.736-23.711,6.207-9.3,12.406-18.6,18.795-27.782,13.111-18.834,26.15-37.718,39.427-56.434.956-1.348-.17-3.66-1.985-2.916a612.026,612.026,0,0,1-115.107,34.513c-18.493,3.593-38.242,4.559-56.048,10.973-15.879,5.72-25.448,17.068-33.512,31.358-7.213,12.78-13.48,28.563-26.335,36.5a196,196,0,0,1,43.251-61.48c2.175-2.069-.672-4.81-2.943-4.322C394.4,132.944,318.876,149.084,254.563,189.4c-31.663,19.85-59.7,44.895-80.755,75.893a469.068,469.068,0,0,0-48.291,92.217c-6.623,16.949-12.277,34.416-14.481,52.525a175.3,175.3,0,0,0,.559,49.092c-1.088.43-2.174.868-3.264,1.3-26.123,10.249-53.759,19.022-82.133,18.3a141.374,141.374,0,0,1-20.655-2.162c-6.134-1.072-7.805,8.023-1.8,9.454,39.383,9.378,77.767-3.354,114.478-19.08A14.18,14.18,0,0,0,123,470.113c48.24,67.828,130.514,107.128,214.044,99.348a240.83,240.83,0,0,0,68.61-17.242c2.281-.932,2.268-4.436-.348-4.919-31.186-5.766-62.912-11.626-91.546-25.251,19.724,5.4,39.662,9.969,60.071,11.971,28.075,2.754,55.412-.68,82.344-8.89a708.347,708.347,0,0,0,86.361-33.047c27.185-12.378,53.518-27.231,76.068-46.988m6.406-48.037a277.037,277.037,0,0,0,35.944-18.466A160.285,160.285,0,0,1,640.3,412.778c-9.514,5.725-19.112,11.271-29.332,15.687a187.385,187.385,0,0,1-36.624,11.659c-26.727,5.486-54.2,3.722-81.13.748-46.348-5.116-88.491-24.593-132.735-37.841-20.866-6.247-41.948-10.389-63.621-10.7,9.926-4.684,19.73-9.614,29.365-14.881,22.391-1.3,43.853,6.255,64.362,14.7,11.088,4.566,22.007,9.683,33.334,13.642,7.818,2.732,16.009,4.522,24.2,3.483a1.707,1.707,0,0,0,1.177.928c58.366,14.212,120.318,10.35,175.72-13.142m-111.2-7.21c-22.552,1.081-46.9,2.329-65.158,17.272a1.824,1.824,0,0,0-.673,1.725c-10.122.844-20.039-2.686-29.354-6.529-11.386-4.7-22.505-10.015-33.9-14.689-17.363-7.122-36-12.573-54.86-12.194,9.979-5.571,19.773-11.511,29.325-17.934q5.091-3.423,10.13-6.913c25.175-3.7,49.27,7.77,72.151,16.844,23.855,9.46,48.459,18.167,74.1,21.07,2.732.309,5.512.571,8.316.764q-5.028.34-10.072.585m70.554-9.116c-10.89,2.466-21.843,4.365-32.855,5.812-11.481.8-22.771,1.429-34.344.159a209.117,209.117,0,0,1-37.352-7.957c-24.695-7.433-47.778-19.305-72.454-26.66-11.065-3.3-22.553-5.251-34.024-4.288,9.291-6.468,18.5-13.028,27.774-19.5a164.082,164.082,0,0,1,22.231-1.531,131.815,131.815,0,0,1,25.808,3.343c17.674,3.845,34.832,9.793,52.247,14.618,38.181,10.579,77.387,18.645,117.192,15.3,17.542-1.476,35.222-4.644,51.843-10.625-27.021,14.365-56.39,24.618-86.066,31.337m91.593-34.353c-17.4,4.405-34.919,8.147-52.872,9.474A245.374,245.374,0,0,1,564.51,352.8c-19.865-3.326-39.5-8.408-58.913-13.71-17.63-4.814-34.977-10.805-52.8-14.895-12.765-2.929-27.224-5.44-40.651-3.53,6.248-4.267,12.545-8.464,18.933-12.531,17.941-3.8,37.332-.182,55.083,3.261,18.781,3.643,37.271,8.709,55.813,13.383,18.624,4.7,37.375,9.156,56.422,11.767a308.808,308.808,0,0,0,57.661,2.465,268.645,268.645,0,0,0,32.886-3.656c2.417-.426,4.822-.886,7.2-1.408q-9.808,6.647-20.19,12.435m27.309-17.392A155.247,155.247,0,0,1,686.64,331.9c-9.556,1.279-19.181,2.234-28.81,2.737a302.312,302.312,0,0,1-59.255-2.715c-37.832-5.5-73.843-19.078-111.307-26.345a274.531,274.531,0,0,0-31.56-4.4c-3.894-.294-8.068-.675-12.23-.693q3.2-1.906,6.441-3.76c14.98-8.549,30.284-16.482,45.7-24.2a1.859,1.859,0,0,0,1.763.779c3.8-.512,7.428-1.685,11.225-2.25a70.37,70.37,0,0,1,12.648-.69,107.763,107.763,0,0,1,23.68,3.808c17.116,4.483,33.531,11.459,50.125,17.514,16.791,6.127,33.832,11.823,51.421,15.18a201.887,201.887,0,0,0,93.859-5.165c-12,9.562-24.541,18.445-37.074,27.28m46.553-35.094q-3.492,2.986-7.066,5.872c-31.221,7.479-63.009,8.823-94.773,2.716-35.047-6.739-66.692-23.558-100.888-32.973a114.37,114.37,0,0,0-26.194-4.326,81.537,81.537,0,0,0-10.975.254c12.53-6.168,25.093-12.269,37.581-18.511.85-.425,1.694-.862,2.543-1.288,8.406.14,17.061-1.836,25.479-2.4a245.277,245.277,0,0,1,25.042-.437,199.343,199.343,0,0,1,50.359,8.543c31.541,9.467,62.828,24.66,96.561,22.524,10.644-.674,21.807-3.008,31.5-7.921a376.781,376.781,0,0,1-29.17,27.943m45.894-46.635q-5.517,6.475-11.242,12.774a86.288,86.288,0,0,1-36.653,9.345c-16.257.534-32.219-2.406-47.762-6.961-16.242-4.76-32.016-10.966-48.223-15.839a203.276,203.276,0,0,0-48.222-8.5,239.664,239.664,0,0,0-27.066.192c-4.394.27-9.058.431-13.682.857q20.573-10.584,40.858-21.751c6.839.428,14.06-.692,20.825-.876,8.005-.218,16.025-.26,24.028.076,16.28.684,32.31,3.5,48.259,6.7,29.391,5.879,59.535,12.778,89.562,7.44,11.228-2,21.9-5.453,31.3-11.365-6.993,9.55-14.287,18.88-21.98,27.909m25.076-32.181c-23.909,12.641-51.317,14.848-78.076,11.452-30.388-3.856-59.853-13.181-90.531-15.04-8.6-.521-17.208-.6-25.815-.352-3.745.106-7.7.053-11.656.152q23.308-13.008,46.307-26.585c5.856-.661,11.7-2,17.566-2.54a115.018,115.018,0,0,1,21.735-.069c13.651,1.334,27.064,4.446,40.721,5.834,26.82,2.726,54.281,1.464,80.125-6.66a131.394,131.394,0,0,0,31.2-14.155c-10.012,16.331-20.416,32.421-31.577,47.963M873.525,131.6c-6.3,10.788-12.663,21.567-19.172,32.258-9.748,5.612-19.622,10.579-30.513,14.123a176.885,176.885,0,0,1-41.313,8.155,226.811,226.811,0,0,1-41-.779c-13.42-1.41-26.589-4.479-39.993-5.926a117.413,117.413,0,0,0-21.717-.261c-3.638.283-7.442.568-11.217,1.047Q701,161,732.948,141.126c6.028-.327,12.075-1.3,18.1-1.561,7.414-.322,14.838-.305,22.257-.2,14.38.21,28.8.886,43.168-.074,22.192-1.482,46.8-6.855,64.721-20.912Q877.375,125,873.525,131.6m9.255-15.947c-20.042,15.9-45.741,20.9-71.3,21.393-13.958.271-27.893-.294-41.845-.5-6.954-.1-13.911-.089-20.859.239-3.186.15-6.473.256-9.734.554Q769.657,118.33,800,98.862c3.774.374,8.4-.841,11.767-1.17,5.648-.553,11.307-1.1,16.924-1.912a277.848,277.848,0,0,0,31.582-6.306c18.008-4.779,35.646-12.1,50.512-23.4Q897,90.984,882.78,115.657m29.474-52.246c-15.925,11.7-34.343,19.154-53.609,23.566a295.461,295.461,0,0,1-31.691,5.057c-5.4.632-10.787,1.268-16.192,1.812-.971.1-2.058.136-3.195.17q30.728-19.7,61.356-39.562c10.922-3.26,22.27-5.126,32.918-9.327a105.492,105.492,0,0,0,30.323-18.3q-9.84,18.362-19.909,36.587m10.164-43.448c6.894-4.421,13.756-8.866,20.545-13.44q-4.528,8.59-9.107,17.149A111.41,111.41,0,0,1,899.1,43.979c-7.764,2.744-15.835,4.372-23.8,6.353q23.543-15.218,47.121-30.369M915.372,3.908q13.279.136,26.515,1c-25.639,15.418-50.728,31.825-75.909,48.012-.675.215-1.349.433-2.02.662,15-18.97,29.777-37.972,51.414-49.679m-2.693-.029C891.723,15.354,875.52,34.89,861.908,54.32c-.911.338-1.819.688-2.719,1.061a1.224,1.224,0,0,0-.275,2.073q-3.314,2.124-6.631,4.241-21.575,13.735-43.2,27.386c4.994-6.266,9.48-13.065,14.085-19.528C829.039,61.311,834.873,53.035,841.03,45a238.283,238.283,0,0,1,19.486-22.73q5.717-5.784,11.99-10.993c2.793-2.316,5.9-4.3,8.826-6.47q15.653-.993,31.346-.926M877.116,5.09c-1.812,1.319-3.561,2.721-5.242,4.035a129.609,129.609,0,0,0-10.586,9.285,222.07,222.07,0,0,0-20.611,23.528c-6.332,8.194-12.3,16.664-18.287,25.108-6.085,8.578-12.7,16.826-18.712,25.44-1.177.742-2.357,1.478-3.535,2.218a9.31,9.31,0,0,0-3.193,1.356,1.215,1.215,0,0,0-.5.964Q780.5,107.038,764.5,116.974c13.111-17.291,21.664-37.9,32.069-56.8A221.527,221.527,0,0,1,815.38,31.019,132.963,132.963,0,0,1,826.6,18.171c2.9-2.884,6.147-5.408,9.193-8.133Q856.3,6.59,877.116,5.09m-54.589,7.392q3.6-.724,7.22-1.382c-5.861,4.688-11.02,10.831-15.42,16.217C807.155,36.1,801.179,45.9,795.7,55.8c-11.53,20.834-21.684,42.243-34.039,62.629a.554.554,0,0,0-.075.362c-.613.38-1.223.763-1.837,1.143q-24.294,15.038-48.694,29.905c31.716-39.723,38.419-96.615,78.654-129.49q16.261-4.534,32.817-7.865m-36.17,8.825c-17.776,14.016-29.582,34.714-39.049,55.06-11.939,25.659-21.645,52.757-39.661,75.008a.787.787,0,0,0-.181.638q-20,12.117-40.167,23.961c-2.667,1.562-5.345,3.1-8.021,4.648,2.206-2.807,4.131-5.923,6.02-8.758q4.634-6.957,8.707-14.264c5.987-10.682,11.176-21.785,16.2-32.944,9.877-21.93,19.2-44.353,32.774-64.333a167.811,167.811,0,0,1,12.1-15.947c2.515-2.889,5.37-5.559,8.088-8.326q21.211-8.427,43.19-14.742M674.713,86.048c5.547-8.721,10.676-18.368,18.7-25.111,7.563-6.357,16.867-10.429,25.754-14.561q7.515-3.493,15.161-6.7a137.9,137.9,0,0,0-10.055,11.8A204.657,204.657,0,0,0,705.663,81.46c-11.416,21.854-20.159,44.984-31.589,66.831-3.15,6.02-6.5,11.943-10.151,17.672-3.722,5.834-8.82,11.119-12.029,17.205a1.673,1.673,0,0,0,.071,1.651q-12.885,7.345-25.886,14.46A133.352,133.352,0,0,0,637.572,179.2a277.717,277.717,0,0,0,12.464-31.43c5.959-17.477,11.174-35.309,18.629-52.214l6.049-9.51M653.787,75.4c-11.036,15.374-22.211,30.647-33.348,45.947q-9.289,12.761-18.818,25.332c-5.128,6.77-10.725,13.114-13.11,21.438-1.761,6.148-1.553,13.41,4.019,17.542a11.87,11.87,0,0,0,3.763,1.872c-3.957,5.778-7.056,12.127-10.5,18.246a98.9,98.9,0,0,1-8.217,12.643c-3.024,3.85-6.724,6.759-10.108,10.217-.367.375.109,1.128.6.885,7.55-3.709,12.905-12.438,17.018-19.453,4.3-7.342,8.111-14.935,12.453-22.24a15.526,15.526,0,0,0,11.413-2.94c6.294-4.4,10.085-11.305,14.111-17.634l17.218-27.069,20.378-32.038c-7.89,20.9-13.59,42.6-22.576,63.1a187.706,187.706,0,0,1-8.329,16.836c-2.876,5.1-6.323,9.7-9.637,14.457q-9.517,5.182-19.088,10.268c-.216.053-.435.1-.65.157a1.787,1.787,0,0,0-1.052.75q-13.845,7.365-27.773,14.6c-15.915,8.271-32.018,16.164-48.126,24.046,13.076-52.56,51.186-93.357,84.721-134.081,5.049-6.131,10.036-12.316,14.875-18.615,4.2-5.464,9-11.14,12.292-17.318q9.288-3.334,18.475-6.948M631.62,83.67c-3.393,4.239-6.425,8.879-9.68,13.13-4.376,5.715-8.877,11.332-13.44,16.9-9.294,11.338-18.846,22.46-28.16,33.782-17.059,20.736-33.408,42.342-45.472,66.436a182.646,182.646,0,0,0-14.688,40.036q-9.952,4.871-19.887,9.777c1.256-5.329,1.311-11.115,2.4-16.487a156.73,156.73,0,0,1,4.9-18.359,191.537,191.537,0,0,1,14.93-33.139c13.518-24.052,31.322-45.179,48.968-66.252,5.3-6.325,10.589-12.655,15.77-19.075,2.514-3.116,4.987-6.252,7.359-9.478a42.778,42.778,0,0,0,4.669-6.9Q615.6,89.3,631.62,83.67M538.276,108.4q8.146-1.483,16.248-3.193a288.015,288.015,0,0,1-23.877,29.3c-9.633,10.246-19.48,20.339-27.8,31.718-15.463,21.162-25.939,45.479-33.341,70.516-4.363,14.757-8.168,29.959-10.093,45.24a1.2,1.2,0,0,0,2.364.449c3.006-12.916,5.4-25.94,8.913-38.743a278.608,278.608,0,0,1,13.359-38.263,198.753,198.753,0,0,1,19.591-35.088c7.985-11.279,17.492-21.26,26.924-31.315,9.862-10.512,20.887-21.535,27.463-34.56q18.737-4.048,37.2-9.252c-.848,1.033-1.651,2.113-2.5,3.148q-3.795,4.642-7.563,9.3c-4.567,5.63-9.221,11.189-13.89,16.734-9.5,11.278-19.068,22.5-28.109,34.153-15.817,20.383-30.3,42.143-39.2,66.515a141.131,141.131,0,0,0-5.658,19.416c-1.344,6.409-3.316,14.139-2.191,20.667a2.312,2.312,0,0,0,.177.564q-10.517,5.23-20.966,10.6-18.34,9.467-35.858,19.995c.767-5.131.766-10.5,1.232-15.595q.872-9.533,2.2-19.018a297.8,297.8,0,0,1,7.789-38.009c7.478-26.92,20.112-50.8,35.987-73.679,8.692-12.524,17.676-24.887,25.735-37.832,8.731-1.332,17.538-2.255,25.86-3.771m-78.185,15.972c-17.287,18.046-31.385,39.489-40.212,62.859-.716,1.9.938,4.417,3.137,3.521a40.534,40.534,0,0,0,14.8-10.467A326.67,326.67,0,0,0,421.261,241.3q-2.995,17.182-4.344,34.6c-.847,10.978-2.028,22.7-.745,33.67.052.444.782.544.824.049.957-11.081.416-22.343,1.254-33.466q1.285-17.059,4.169-33.947a416.161,416.161,0,0,1,16.3-62.932c15.089-17.417,18.983-45.335,40.727-57.341,9.672-5.34,20.689-7.832,31.869-9.584-8.533,10.709-16.457,21.949-24.306,33.158-8.241,11.77-16.266,23.749-22.8,36.569-11.882,23.318-18.906,48.838-22.9,74.622-1.113,7.175-1.995,14.387-2.69,21.615-.6,6.193-1.67,12.924-1.225,19.252q-4.542,2.739-9.037,5.552a22.782,22.782,0,0,0-2.25,1.139,2.448,2.448,0,0,0-.833.783q-18.568,11.7-36.583,24.434a314.361,314.361,0,0,1,2.543-80.371c2.273-14.112,5.4-28.189,10.45-41.588s11.824-26.1,18.735-38.617q6.29-11.395,12.98-22.562c3.654-6.1,7.5-12.046,10.676-18.365q8-1.827,16.016-3.591m-19.439,4.376C432.7,138.933,426.487,150.9,420.16,162c-7.378,12.939-14.673,26.051-20.362,39.837-10.661,25.835-15.2,54.283-16.613,82.069A313.574,313.574,0,0,0,384.5,332.26c.006.052.022.1.03.146l-.291.205c-12.973,9.242-26.016,18.164-39.364,26.549a120.087,120.087,0,0,0,5.345-14.538,216.573,216.573,0,0,0,5.9-22.475c3.308-15.86,5.2-31.995,6.755-48.108,3.164-32.743,5.6-66.274,18.426-96.969a136.371,136.371,0,0,1,12.708-23.825,146.622,146.622,0,0,1,13.346-16.4q16.591-4.279,33.3-8.1m-37.528,9.2c-8.536,8.407-15.19,19.2-20.394,29.665-6.872,13.815-11.491,28.664-14.688,43.729-7,33-7.481,66.9-13.112,100.1a245.886,245.886,0,0,1-5.955,26.726c-2.324,8.1-5.972,15.748-8.517,23.731-11.228,6.914-22.693,13.428-34.526,19.424,2.079-5.8,2.854-12.571,3.865-18.262,1.476-8.307,2.51-16.687,3.328-25.082,1.646-16.891,2.418-33.854,4.161-50.737A300.675,300.675,0,0,1,343.615,191.5q5.791-12.526,12.772-24.455c3.871-6.612,8.214-12.91,12.336-19.351q17.09-5.244,34.4-9.746m-54.5,16.241q8.912-3.036,17.908-5.813c-8.658,10.837-15.734,23.406-22.1,35.5a273.738,273.738,0,0,0-18.9,45.9,283.2,283.2,0,0,0-10.6,48.877c-2.162,17.059-3.032,34.242-4.524,51.364-.83,9.519-1.848,19.03-3.4,28.462-.789,4.807-1.718,9.593-2.826,14.337-.835,3.573-2.051,7.07-2.6,10.676-3.148,1.548-6.314,3.071-9.52,4.542-10.556,4.842-21.254,9.283-32.03,13.512,12.457-28.7,14.154-60.484,15.8-91.4.976-18.332,2.066-36.708,5.564-54.765a234.737,234.737,0,0,1,14.625-47.61,265.608,265.608,0,0,1,12.287-24.879c3.368-6.042,7.15-11.823,10.8-17.686q14.59-5.959,29.514-11.013m-32.473,12.224C308.305,176.682,302,188.5,296.626,200a238.664,238.664,0,0,0-15.954,45.82c-8.234,34.695-6.442,70.447-10.885,105.622-2.246,17.787-6.23,35.4-13.808,51.688-11.54,4.466-23.164,8.71-34.8,12.952,11.1-30.67,15.658-62.4,15.686-94.98.015-17.089.138-34.061,2.931-50.968a215.088,215.088,0,0,1,12.823-45.6,252.291,252.291,0,0,1,18.15-35.794,383.215,383.215,0,0,1,45.383-22.326m-65.724,35.215q7.97-5.509,16.265-10.48C253.1,212.038,243.94,235.97,238.8,260.21a237.53,237.53,0,0,0-4.76,47.232c-.168,17.7.088,35.306-2.2,52.907a255.791,255.791,0,0,1-14.2,56.885,1.572,1.572,0,0,0-.042.158c-7.522,2.744-15.045,5.5-22.549,8.318q-4.334,1.629-8.652,3.3c2.059-4.559,2.968-10.076,3.993-14.659a182.83,182.83,0,0,0,3.337-20.87c1.442-13.754,1.63-27.6,1.607-41.422-.046-28.5-1.105-57.5,6.08-85.338a149.878,149.878,0,0,1,9.631-26.569c1.511-3.2,3.159-6.305,4.869-9.376a240.313,240.313,0,0,1,34.518-29.149M122.62,454.729c-.431-.682-.875-1.355-1.3-2.042a3.874,3.874,0,0,0-3.578-1.728c-1.046-27.272,5.582-54.558,14.72-80.145.2-.566.413-1.13.618-1.7A199.045,199.045,0,0,0,132.947,391c.458,10.832,1.475,21.631,1.918,32.463.213,5.212.3,10.432.132,15.646-.1,3.044-.287,6.083-.591,9.113-.06.6-.147,1.205-.238,1.815q-5.771,2.353-11.548,4.69m14.827-6.022c.145-2.211.142-4.434.244-6.4.271-5.2.264-10.419.1-15.627-.332-10.694-1.319-21.352-1.913-32.031a189.035,189.035,0,0,1,.319-30.437c.178-1.683.4-3.366.637-5.046A466.4,466.4,0,0,1,168.864,293.7a195.9,195.9,0,0,0-8.808,46.491c-1.609,22.837-.222,45.785-2.179,68.6a182.182,182.182,0,0,1-2.47,18.466c-1,5.288-3,10.527-4.151,15.8q-6.905,2.819-13.809,5.643m17.3-7.066c1.007-3.185,1.631-6.586,2.3-9.649a162.644,162.644,0,0,0,2.692-16.527,328.118,328.118,0,0,0,1.706-32.85c.293-23.472-.131-46.975,4.576-70.1a227.4,227.4,0,0,1,6.772-25.41q1.756-2.891,3.543-5.752A301.869,301.869,0,0,1,207.705,239.5a167.623,167.623,0,0,0-6.822,17.708,181.062,181.062,0,0,0-7.9,42.569c-2.141,28.437.222,57-1.888,85.435a205.54,205.54,0,0,1-2.977,23.337q-1.1,5.767-2.627,11.44c-.949,3.5-2.486,6.959-3,10.544-9.283,3.622-18.52,7.352-27.746,11.11m14.542,66.746a230.793,230.793,0,0,1-30.121-30.627c67.188,16.443,124.339,61.183,192.665,74.374a150.9,150.9,0,0,0,32.574,2.522,212.728,212.728,0,0,0,23.649-1.731c-74.58,22.78-158.968,5.849-218.766-44.539m226.19,42.13c-.4.139-.812.27-1.217.407-9.04.083-18.137,1.184-27.174,1.434a151.509,151.509,0,0,1-30.642-2c-18.192-3.221-35.766-9.462-52.737-16.64C250.8,519.8,219.78,501.813,186.7,488.242c-16.8-6.892-34.01-12.556-51.845-15.93q-1.767-2.3-3.481-4.646c.483-2.073-.413-4.373-3.132-4.688-.071-.009-.14-.024-.211-.034-.05-.073-.1-.147-.148-.219q6.635-2.935,13.19-5.891a98.033,98.033,0,0,1,14,1.381,139.6,139.6,0,0,1,19.593,5.744c14.037,5.075,27.9,10.693,41.826,16.06,14.169,5.459,28.343,10.906,42.413,16.617,11.3,4.588,22.484,9.485,33.763,14.125-2.387.1-2.935,3.71-.792,5,31.483,18.929,67.875,27.476,103.6,34.758m-14.092-22.354c-27.875-1.774-55.142-8.86-82.121-15.83-12.808-7.046-26.448-12.79-39.934-18.362-14.74-6.091-29.6-11.9-44.44-17.733-13.941-5.48-27.8-11.313-41.961-16.213a131.534,131.534,0,0,0-18.54-5.15c-2.1-.4-4.3-.787-6.541-1.072,6.437-2.869,12.815-5.666,19.129-8.281a393.247,393.247,0,0,1,109.577,26.972c18.282,7.411,35.629,16.554,52.969,25.909,17.071,9.209,34.354,18.236,52.908,24.1a139.072,139.072,0,0,0,23.981,5.408,174.624,174.624,0,0,1-25.028.249m83.157-12.891a277.8,277.8,0,0,1-36.407,9.7c-34.035,1.947-66.04-13.656-95.5-29.69-16.936-9.217-33.83-18.414-51.592-25.969A377.281,377.281,0,0,0,228.373,451.4a388.72,388.72,0,0,0-51.88-9.757q10.83-4.371,21.728-8.622c22.9,1.09,45.869,2.228,68.519,5.983a284.353,284.353,0,0,1,59.266,17.069c36.18,14.489,70.588,33.511,107.985,44.888a217.514,217.514,0,0,0,32.23,7.339,113.142,113.142,0,0,0,14.624,1.359q-8.136,2.887-16.3,5.617m83.276-33.022c-19.879,9.446-40.432,17.8-61.2,25.331-7.059.2-14.185-.794-21.151-1.912a215.286,215.286,0,0,1-28.028-6.55c-19-5.732-37.261-13.669-55.276-21.937-35.859-16.456-71.352-34.024-110.506-41.134-21.409-3.887-43.149-5.292-64.859-6.383,11.6-4.521,23.21-9.024,34.772-13.635,44.355-4.126,87.614,12.921,128.99,26.65,43.775,14.526,88.14,29.873,133.894,36.825a204.6,204.6,0,0,0,34.321,2.56c3.395-.06,6.889-.192,10.4-.466-.452.217-.9.436-1.355.651m8.008-3.925a129.44,129.44,0,0,1-14.6,1.416,190.518,190.518,0,0,1-32.415-1.976c-22.277-3.108-44.228-8.753-65.831-14.913-23.5-6.7-46.686-14.412-69.851-22.165-21.046-7.044-42.017-14.521-63.4-20.489-18.418-5.141-37.693-9.073-56.912-8.694,12.794-5.214,25.5-10.614,38.025-16.376,44.975-.76,87.964,18.034,129.807,32.15,22.05,7.439,44.4,13.779,67.549,16.618,26.375,3.235,53.739,5.346,80.084.932,22.744-3.811,46.431-11.722,66.007-24.778-21.368,24.51-49.294,43.551-78.459,58.274" transform="translate(0 0)" fill="#233a2e"/>
              </g>
            </g>
          </g>
        </g>
      </g>
    </g>
  </g>
</svg>
