<svg id="Laag_1" xmlns="http://www.w3.org/2000/svg" viewBox="0 0 2851 684"><style>.st0{fill:#282727}</style><path class="st0" d="M2251 380c6 0 12-7 26-25l28-35 2-4c2-3 4-9 4-15v-81a14 14 0 0 0-14-14h-41c-8 0-13 6-14 13v133s-1 28 9 28z"/><path class="st0" d="M2711 207h-60c-4 0-7 2-10 5l-157 196V222c0-8-6-15-14-15h-42c-4 0-7 2-10 5l-169 211a89 89 0 0 1-137 0l-2-2a89 89 0 0 1-19-52V221a14 14 0 0 0-14-14h-42c-7 0-13 5-14 13v14a159 159 0 0 0-32-17 158 158 0 0 0-41-10h-4a165 165 0 0 0-24 0h-4l-21 4a160 160 0 0 0-20 6 158 158 0 0 0-33 17 161 161 0 0 0-33 30v1a160 160 0 0 0-20 30 157 157 0 0 0-15 48v4a161 161 0 0 0 6 66 157 157 0 0 0 28 53l1 1a160 160 0 0 0 33 30 160 160 0 0 0 74 27h4a165 165 0 0 0 24 0h4a161 161 0 0 0 73-26v-1h1l1-1c4-3 12-11 5-21a197 197 0 0 1-7-10l-10-20-1-3c-5-9-14-8-19-7l-4 2a89 89 0 0 1-39 17 90 90 0 0 1-32 0c-21-4-40-15-53-31l-2-2a89 89 0 0 1-19-55v-4a89 89 0 0 1 19-52l2-2a90 90 0 0 1 138 0l1 3a89 89 0 0 1 19 51v9l1 14 1 3a176 176 0 0 0 8 32 160 160 0 0 0 7 16 161 161 0 0 0 18 29l1 1 1 1a162 162 0 0 0 33 30 159 159 0 0 0 33 17 160 160 0 0 0 40 10h4a165 165 0 0 0 25 0h3a161 161 0 0 0 74-27 160 160 0 0 0 33-30l111-139v183a14 14 0 0 0 14 14h44l7-3 9-7 229-287c17-21-7-21-7-21zm-952-106h-42a14 14 0 0 0-14 14v396a14 14 0 0 0 14 14h42a14 14 0 0 0 14-14V115a14 14 0 0 0-14-14zm-58 242a159 159 0 0 0-14-48 159 159 0 0 0-19-29l-1-2a160 160 0 0 0-34-30 159 159 0 0 0-52-23l-21-4h-4a165 165 0 0 0-24 0 160 160 0 0 0-25 4 158 158 0 0 0-53 23V115a14 14 0 0 0-14-14h-41a14 14 0 0 0-14 14v396a14 14 0 0 0 14 14h41a14 14 0 0 0 14-14v-14a159 159 0 0 0 74 27h4a165 165 0 0 0 24 0h4a162 162 0 0 0 73-27 160 160 0 0 0 33-30l2-2a159 159 0 0 0 33-77l1-3a162 162 0 0 0-1-42zm-68 26a89 89 0 0 1-18 51l-2 3a89 89 0 0 1-159-54v-7a89 89 0 0 1 20-52l1-1a90 90 0 0 1 138 0l1 2a89 89 0 0 1 19 58zm-298 61l-6-1h-56c-6 0-10 1-14 3l-6 4a89 89 0 0 1-124-13l-2-2a89 89 0 0 1-12-20v-1l-1-1-5-9h-1a14 14 0 0 0-8-3c-4 0-8 2-11 6l-28 35h1c-5 6-6 11-1 19l13 19 1 1a160 160 0 0 0 106 57h4a165 165 0 0 0 25 0h3a162 162 0 0 0 74-27 160 160 0 0 0 33-30l1-2c7-7 12-15 17-24l1-7a6 6 0 0 0-4-5z"/><path class="st0" d="M1355 347v-4a159 159 0 0 0-15-48 159 159 0 0 0-19-29l-1-2a160 160 0 0 0-33-30 159 159 0 0 0-33-17 158 158 0 0 0-40-10h-4a165 165 0 0 0-25 0 160 160 0 0 0-44 10 158 158 0 0 0-33 17 160 160 0 0 0-33 30L948 423a89 89 0 0 1-158-54v-7a89 89 0 0 1 19-52l1-1a90 90 0 0 1 138 0l1 2c5 6 9 13 12 20s3 7 7 10l1 1a14 14 0 0 0 7 2c4 0 8-2 11-5l7-8 16-21 12-15 2-3 10-12 3-7a28 28 0 0 0 1-8V115a14 14 0 0 0-14-14h-41a14 14 0 0 0-14 14v119a159 159 0 0 0-33-17 159 159 0 0 0-41-10h-4a165 165 0 0 0-24 0h-4a160 160 0 0 0-41 10 158 158 0 0 0-33 17 160 160 0 0 0-33 30v1a159 159 0 0 0-20 30 159 159 0 0 0-15 48v3l-1 20a160 160 0 0 0 35 100l1 1a160 160 0 0 0 33 30 160 160 0 0 0 74 27h4a165 165 0 0 0 24 0h4a161 161 0 0 0 74-27 160 160 0 0 0 33-30l127-159a89 89 0 0 1 137 0l2 2c5 7 9 13 12 21h-125l-6 1c-3 2-5 5-8 10a68 68 0 0 0-4 21v5a68 68 0 0 0 5 22c2 5 4 7 7 9a13 13 0 0 0 6 1h185a15 15 0 0 0 12-7l2-3a30 30 0 0 0 2-7 159 159 0 0 0-1-36z"/><path class="st0" d="M719 347l-1-4a160 160 0 0 0-14-48 159 159 0 0 0-20-30l-1-1a160 160 0 0 0-33-30 159 159 0 0 0-32-17 158 158 0 0 0-41-10h-4a165 165 0 0 0-24 0 160 160 0 0 0-45 10 158 158 0 0 0-33 17 160 160 0 0 0-33 30L311 423a89 89 0 0 1-158-57 90 90 0 0 1 158-58l2 3a87 87 0 0 1 7 10l1 2 4 4v1a14 14 0 0 0 18-3l28-34c4-6 5-11 1-18l-6-7-1-2a160 160 0 0 0-33-30 159 159 0 0 0-33-17 158 158 0 0 0-40-10h-5a157 157 0 0 0-49 4 159 159 0 0 0-52 23 159 159 0 0 0 0 263 158 158 0 0 0 52 24 160 160 0 0 0 127-24 160 160 0 0 0 33-30l127-158a90 90 0 0 1 138 0l1 2a89 89 0 0 1 19 51v4a90 90 0 0 1-18 55l-2 2a90 90 0 0 1-138 0l-2-2-11-20c-3-7-3-7-7-11h-1a14 14 0 0 0-7-2c-4 0-9 1-11 5l-28 35c-5 6-5 11-1 19l13 19 1 1a160 160 0 0 0 33 30 159 159 0 0 0 74 27h4a165 165 0 0 0 24 0h4a162 162 0 0 0 73-27 160 160 0 0 0 33-30l2-2a160 160 0 0 0 33-77l1-3a160 160 0 0 0 0-38z"/></svg>