<svg id="Group_14839" data-name="Group 14839" xmlns="http://www.w3.org/2000/svg" xmlns:xlink="http://www.w3.org/1999/xlink" width="121.222" height="121.222" viewBox="0 0 121.222 121.222">
  <defs>
    <clipPath id="clip-path">
      <rect id="Rectangle_1139" data-name="Rectangle 1139" width="121.222" height="121.222" fill="none"/>
    </clipPath>
  </defs>
  <g id="Group_14838" data-name="Group 14838" clip-path="url(#clip-path)">
    <path id="Path_27525" data-name="Path 27525" d="M79.8,34.256a25.228,25.228,0,0,0-28.033-6.985A26.378,26.378,0,0,0,39.2,37.286a24.2,24.2,0,0,0-4.255,13.885,20.564,20.564,0,0,0,.185,2.288c.829,6.025,4.283,11.383,7.43,16.444,4.058,6.524,8.275,12.947,12.519,19.351q1.146,1.729,2.294,3.457c2.565,3.862,3.99,3.868,6.493.108,6.571-9.874,13.236-19.71,19.268-29.913,5.36-9.068,3.623-20.86-3.335-28.65M60.611,60.611A10.434,10.434,0,1,1,71.046,50.176,10.435,10.435,0,0,1,60.611,60.611" fill="#f5a287"/>
    <circle id="Ellipse_28" data-name="Ellipse 28" cx="59.111" cy="59.111" r="59.111" transform="translate(1.5 1.5)" fill="none" stroke="#fff" stroke-width="3"/>
  </g>
</svg>
