<svg xmlns="http://www.w3.org/2000/svg" width="45.202" height="45.204" viewBox="0 0 45.202 45.204">
  <g id="Tools" transform="translate(-4.193 -4.188)">
    <path id="Path_27585" data-name="Path 27585" d="M46.963,35.863l-6.744-6.744a.812.812,0,0,0-1.1-.041l-3,2.583-2.421-2.421a.812.812,0,0,0-1.149,0l0,0-2.666-2.666L47.277,8.45c2.429-2.542-.727-5.566-3.157-3.018L26.785,23.487,14.494,11.2a4.072,4.072,0,0,0-.953-4.3L11.074,4.426a.812.812,0,0,0-1.149,0L4.431,9.92a.812.812,0,0,0,0,1.149L6.9,13.535a4.082,4.082,0,0,0,4.3.953L23.559,26.846l-7.585,7.9-7.22-5.578a.813.813,0,0,0-1.14.146l-1.676,2.17a.812.812,0,0,0,.146,1.14l.512.4v3.349a.813.813,0,0,0,1.625,0V34.275L8.9,34.8v3.274a.813.813,0,0,0,1.625,0V36.055l.679.525v3.238a.813.813,0,0,0,1.625,0V37.836l.679.525v3.2a.813.813,0,0,0,1.625,0V39.616l.679.525v3.2a.813.813,0,1,0,1.625,0V41.4l.679.525V45.09a.813.813,0,1,0,1.625,0V43.177l.679.525v3.133a.813.813,0,0,0,1.625,0V44.958l.679.525v3.1a.813.813,0,0,0,1.625,0V46.738c.983.759,1.548-.547,2.878-2.268a.813.813,0,0,0-.146-1.14l-7.636-5.9,7.2-7.5,2.6,2.6,0,0a.813.813,0,0,0,0,1.149l2.422,2.422-2.583,3a.813.813,0,0,0,.041,1.1l6.745,6.744C38.215,49.3,45,50.6,47.8,47.8s1.506-9.588-.839-11.934ZM10.5,6.149l.865.865L7.02,11.359l-.865-.865ZM8.181,12.5,12.5,8.176a2.475,2.475,0,0,1-.111,3.4l-.813.813a2.5,2.5,0,0,1-3.4.11Zm4.447,1.121c.449-.422.591-.566.994-.994L25.659,24.659l-.974,1.014ZM24.767,45,7.722,31.835,8.4,30.95,25.449,44.119Zm-7.5-9.258L45.294,6.556c.258-.269.724-.754,1.117-.361s-.047.859-.308,1.132L18.157,36.432Zm10.506-6.983.974-1.014,2.642,2.643-.994.994Zm5.342,2.2,5.648,5.648c1.165,1.165-1.005,3.287-2.147,2.148l-5.649-5.648ZM46.653,46.648c-2.069,2.067-7.815.981-9.635-.84L30.807,39.6l2.012-2.338,2.649,2.649c2.673,2.675,7.12-1.769,4.446-4.446l-2.649-2.649L39.6,30.8l6.211,6.211C47.634,38.833,48.721,44.58,46.653,46.648Z" fill="#f8f4ea"/>
  </g>
</svg>
