<svg xmlns="http://www.w3.org/2000/svg" xmlns:xlink="http://www.w3.org/1999/xlink" width="77.26" height="77.258" viewBox="0 0 77.26 77.258">
  <defs>
    <clipPath id="clip-path">
      <rect id="Rectangle_1155" data-name="Rectangle 1155" width="77.26" height="77.258" fill="#f5a287"/>
    </clipPath>
  </defs>
  <g id="Group_14879" data-name="Group 14879" transform="translate(0 -0.001)">
    <g id="Group_14878" data-name="Group 14878" transform="translate(0 0)" clip-path="url(#clip-path)">
      <path id="Path_27582" data-name="Path 27582" d="M77.26,38.63A38.63,38.63,0,1,1,38.63,0,38.63,38.63,0,0,1,77.26,38.63" transform="translate(0 -0.001)" fill="#f5a287"/>
      <path id="Path_27583" data-name="Path 27583" d="M7.429,51.865,10.65,39.851a22.25,22.25,0,1,1,8.859,8.78Zm12.68-7.739.76.456a18.063,18.063,0,1,0-6.175-6.121l.465.766-1.8,6.706Z" transform="translate(8.793 8.218)" fill="#fff"/>
      <path id="Path_27584" data-name="Path 27584" d="M31.86,25.686c-.913-.546-2.1-1.155-3.177-.716-.825.338-1.354,1.631-1.887,2.291a.791.791,0,0,1-1.024.221,14.379,14.379,0,0,1-7.182-6.151.882.882,0,0,1,.109-1.2,4.863,4.863,0,0,0,1.306-2.118,4.641,4.641,0,0,0-.583-2.509c-.432-.932-.917-2.262-1.852-2.788a2.536,2.536,0,0,0-2.754.408,5.592,5.592,0,0,0-1.939,4.431,6.214,6.214,0,0,0,.175,1.406A11.648,11.648,0,0,0,14.4,22.063a24.459,24.459,0,0,0,1.408,2.142,21.692,21.692,0,0,0,6.108,5.669,18.457,18.457,0,0,0,3.808,1.812,8.479,8.479,0,0,0,4.433.7,5.369,5.369,0,0,0,4.02-2.989,2.608,2.608,0,0,0,.186-1.526c-.229-1.05-1.653-1.675-2.5-2.184" transform="translate(15.242 14.749)" fill="#fff" fill-rule="evenodd"/>
    </g>
  </g>
</svg>
